<svg width="58" height="46" viewBox="0 0 58 46" fill="none" xmlns="http://www.w3.org/2000/svg">
<g clip-path="url(#clip0_713_2)">
<path d="M51.9326 32.6368H19.4725L7.96863 4.22599H0V0H10.8161L13.2664 6.04985V5.93011H58L51.9326 32.6368ZM22.32 28.4108H48.5594L52.7051 10.1576H14.9282L22.32 28.4108Z" fill="black"/>
<path d="M22.4237 45.4915C21.3322 45.4918 20.2652 45.1684 19.3575 44.5622C18.4498 43.956 17.7423 43.0942 17.3244 42.0859C16.9065 41.0776 16.797 39.968 17.0098 38.8975C17.2225 37.8269 17.748 36.8435 18.5197 36.0716C19.2914 35.2997 20.2747 34.774 21.3451 34.561C22.4156 34.3479 23.5253 34.4571 24.5337 34.8748C25.5421 35.2924 26.404 35.9997 27.0105 36.9072C27.6169 37.8147 27.9406 38.8817 27.9406 39.9732C27.939 41.436 27.3573 42.8385 26.3231 43.873C25.2889 44.9075 23.8865 45.4895 22.4237 45.4915ZM22.4237 38.6837C22.1683 38.6837 21.9187 38.7595 21.7064 38.9014C21.4941 39.0433 21.3286 39.245 21.231 39.481C21.1333 39.7169 21.1078 39.9765 21.1578 40.227C21.2077 40.4774 21.3308 40.7074 21.5114 40.8879C21.6921 41.0684 21.9223 41.1912 22.1728 41.2409C22.4233 41.2905 22.6829 41.2647 22.9187 41.1668C23.1546 41.0689 23.3561 40.9032 23.4977 40.6907C23.6394 40.4782 23.7149 40.2285 23.7146 39.9732C23.7138 39.6312 23.5775 39.3034 23.3355 39.0617C23.0936 38.8201 22.7657 38.6841 22.4237 38.6837Z" fill="black"/>
<path d="M49.1889 45.4915C48.0974 45.4915 47.0305 45.1678 46.123 44.5615C45.2156 43.9551 44.5083 43.0933 44.0906 42.0849C43.6729 41.0766 43.5636 39.967 43.7766 38.8966C43.9895 37.8261 44.5151 36.8429 45.2868 36.0711C46.0586 35.2994 47.0418 34.7738 48.1123 34.5609C49.1827 34.3479 50.2923 34.4572 51.3006 34.8749C52.309 35.2926 53.1708 35.9999 53.7772 36.9073C54.3835 37.8148 54.7072 38.8817 54.7072 39.9732C54.7056 41.4362 54.1237 42.8389 53.0892 43.8735C52.0546 44.908 50.6519 45.4899 49.1889 45.4915ZM49.1889 38.6837C48.9335 38.684 48.6841 38.76 48.4719 38.9021C48.2598 39.0442 48.0946 39.246 47.9971 39.482C47.8997 39.718 47.8744 39.9775 47.9245 40.2279C47.9746 40.4782 48.0978 40.7081 48.2786 40.8884C48.4593 41.0688 48.6894 41.1914 48.9399 41.241C49.1904 41.2905 49.4499 41.2646 49.6857 41.1667C49.9214 41.0687 50.1228 40.903 50.2644 40.6906C50.406 40.4781 50.4815 40.2285 50.4812 39.9732C50.481 39.8036 50.4474 39.6358 50.3824 39.4793C50.3173 39.3227 50.2221 39.1805 50.1021 39.0608C49.9821 38.9411 49.8396 38.8461 49.683 38.7814C49.5263 38.7168 49.3584 38.6836 49.1889 38.6837Z" fill="black"/>
</g>
<defs>
<clipPath id="clip0_713_2">
<rect width="58" height="45.4914" fill="white"/>
</clipPath>
</defs>
</svg>
