<svg width="264" height="234" viewBox="0 0 264 234" fill="none" xmlns="http://www.w3.org/2000/svg">
<path d="M125.15 210.46C104.42 210.454 84.1569 204.301 66.9233 192.78C49.6897 181.259 36.2593 164.886 28.3304 145.732C20.4014 126.578 18.3299 105.503 22.3777 85.1722C26.4256 64.8411 36.4111 46.1668 51.0717 31.5105C65.7322 16.8541 84.4094 6.87396 104.742 2.83189C125.074 -1.21019 146.148 0.867351 165.3 8.80181C184.451 16.7363 200.82 30.1713 212.337 47.4082C223.853 64.6451 230 84.9098 230 105.64C229.968 133.435 218.91 160.083 199.253 179.734C179.596 199.386 152.945 210.436 125.15 210.46ZM125.15 1.85999C104.624 1.85999 84.5595 7.94658 67.4929 19.3501C50.4264 30.7536 37.1246 46.9618 29.2698 65.9251C21.4149 84.8884 19.3597 105.755 23.3641 125.886C27.3685 146.018 37.2526 164.51 51.7664 179.024C66.2803 193.537 84.7722 203.422 104.904 207.426C125.035 211.43 145.902 209.375 164.865 201.52C183.828 193.665 200.036 180.364 211.44 163.297C222.843 146.231 228.93 126.166 228.93 105.64C228.901 78.1248 217.958 51.7448 198.501 32.2886C179.045 12.8324 152.665 1.88911 125.15 1.85999Z" fill="#212121"/>
<path d="M63.44 21.57L68.35 28.32C68.63 28.11 68.91 27.92 69.2 27.72L64.29 21L63.44 21.57ZM77.64 22.29L73.47 15.06L72.57 15.58L76.74 22.81L77.64 22.29ZM55 28.48L60.57 34.68C60.83 34.44 61.1 34.22 61.36 33.99L55.77 27.78L55 28.48ZM96 14.21L93.43 6.29003L92.43 6.61003L95 14.54L96 14.21ZM105.72 11.66L104 3.52003L103 3.73003L104.74 11.89L105.72 11.66ZM86.61 17.77L83.22 10.15L82.22 10.58L85.61 18.2L86.61 17.77ZM47.32 36.24L53.52 41.83C53.75 41.57 53.97 41.3 54.21 41.04L48 35.47L47.32 36.24ZM47.85 48.81L41.1 43.91L40.49 44.76L47.24 49.66C47.45 49.38 47.64 49.09 47.85 48.81ZM115.64 10.16L114.77 1.86003L113.77 1.97003L114.64 10.27L115.64 10.16ZM29.79 95.09L21.51 94.22L21.4 95.22L29.67 96.09L29.79 95.09ZM31.41 85.17L23.27 83.44L23.06 84.44L31.18 86.17C31.25 85.85 31.34 85.51 31.41 85.17ZM37.72 66.17L30.11 62.78L29.69 63.78L37.29 67.17C37.43 66.76 37.58 66.44 37.72 66.13V66.17ZM34.06 75.52L26.15 72.95L25.83 73.95L33.73 76.52C33.84 76.14 34 75.82 34.06 75.48V75.52ZM42.33 57.25L35.11 53L34.59 53.9L41.81 58.07C42 57.81 42.16 57.51 42.33 57.21V57.25ZM172.69 22.3L173.59 22.82L177.79 15.55L176.89 15.02L172.69 22.3ZM208.5 58.12L215.78 53.92L215.26 53.02L208 57.22L208.5 58.12ZM203.05 36.22L202.35 35.44L196.12 41.05L196.8 41.84L203.05 36.22ZM213.05 67.09L220.71 63.68L220.28 62.68L212.62 66.09C212.74 66.46 212.89 66.77 213 67.09H213.05ZM203.1 49.68L209.9 44.68L209.29 43.84L202.49 48.78C202.68 49.11 202.87 49.4 203.08 49.68H203.1ZM216.6 76.48L224.6 73.9L224.28 72.9L216.28 75.49C216.36 75.82 216.48 76.15 216.58 76.48H216.6ZM220.65 96.12L228.99 95.25L228.88 94.25L220.54 95.13C220.56 95.43 220.6 95.78 220.63 96.12H220.65ZM219.15 86.2L227.34 84.46L227.12 83.46L218.92 85.2C219 85.52 219.06 85.85 219.13 86.2H219.15ZM124.65 9.70003H125.7V1.34003H124.65V9.70003ZM189 34L189.78 34.69L195.4 28.45L194.62 27.76L189 34ZM134.69 10.16C135.04 10.16 135.38 10.24 135.69 10.28L136.56 1.93003L135.56 1.82003L134.69 10.16ZM154.33 14.22C154.66 14.32 154.99 14.44 155.33 14.55L157.92 6.55003L156.92 6.23003L154.33 14.22ZM144.62 11.66C144.96 11.73 145.29 11.82 145.62 11.9L147.37 3.69003L146.37 3.48003L144.62 11.66ZM163.72 17.78L164.67 18.21L168.08 10.54L167.13 10.11L163.72 17.78ZM181.13 27.78L181.98 28.38L186.92 21.59L186.07 20.97L181.13 27.78ZM29.2 105.64C29.2 105.46 29.2 105.29 29.2 105.11H20.88V106.11H29.2C29.21 106 29.2 105.81 29.2 105.64ZM31.2 125.08L23.09 126.8L23.31 127.8L31.44 126.07C31.33 125.76 31.24 125.42 31.17 125.08H31.2ZM202.51 162.45L209.28 167.37L209.89 166.53L203.11 161.6L202.51 162.45ZM189 177.28L194.6 183.5L195.38 182.8L189.78 176.59C189.5 176.83 189.23 177.05 189 177.28ZM196.15 170.22L202.37 175.82L203.06 175.05L196.84 169.44C196.57 169.7 196.35 170 196.12 170.22H196.15ZM181.15 183.55L186.07 190.33L186.92 189.72L182 183C181.7 183.16 181.41 183.35 181.13 183.55H181.15ZM154.34 197.07L156.9 205L157.9 204.68L155.32 196.68L154.34 197.07ZM163.73 193.51L167.13 201.14L168.08 200.72L164.68 193.08L163.73 193.51ZM144.62 199.62L146.35 207.77L147.35 207.56L145.62 199.39L144.62 199.62ZM172.68 189L176.86 196.24L177.77 195.72L173.58 188.48L172.68 189ZM218.9 126.1L227.1 127.84L227.32 126.84L219.14 125.1C219.07 125.41 219 125.75 218.9 126.09V126.1ZM220.52 116.19L228.86 117.07L228.97 116.07L220.63 115.2C220.6 115.49 220.56 115.84 220.52 116.18V116.19ZM221.09 105.12C221.09 105.3 221.09 105.47 221.09 105.65C221.09 105.83 221.09 105.99 221.09 106.17H229.49V105.17L221.09 105.12ZM216.25 135.79L224.25 138.37L224.57 137.37L216.57 134.79L216.25 135.79ZM212.6 145.14L220.25 148.55L220.67 147.55L213.03 144.15C212.89 144.5 212.74 144.81 212.6 145.13V145.14ZM29.67 115.14L21.41 116L21.51 117L29.79 116.13L29.67 115.14ZM208 154.05L215.25 158.24L215.78 157.34L208.52 153.15L208 154.05ZM47.33 175L48.02 175.78L54.2 170.22C53.97 169.96 53.75 169.69 53.51 169.43L47.33 175ZM63.46 189.67L64.3 190.28L69.2 183.55L68.35 182.94L63.46 189.67ZM55 182.78L55.77 183.48L61.35 177.29C61.09 177.06 60.82 176.84 60.56 176.6L55 182.78ZM47.23 161.61L40.49 166.51L41.1 167.35L47.83 162.46L47.23 161.61ZM33.73 134.8L25.84 137.36L26.16 138.36L34.06 135.79C34 135.46 33.83 135.13 33.73 134.8ZM37.28 144.19L29.7 147.57L30.12 148.57L37.71 145.19C37.57 144.83 37.42 144.51 37.28 144.19ZM134.67 201.12L135.54 209.42L136.54 209.31L135.66 201.01L134.67 201.12ZM41.81 153.12L34.6 157.28L35.12 158.18L42.33 154.03C42.15 153.77 42 153.46 41.81 153.16V153.12ZM113.75 209.24L114.75 209.35L115.62 201.08L114.62 200.97L113.75 209.24ZM124.63 201.54V209.9H125.68V201.54H125.16H124.63ZM103 207.52L104 207.74L105.73 199.62L104.73 199.39L103 207.52ZM82.3 200.68L83.3 201.11L86.68 193.52L85.73 193.09L82.3 200.68ZM92.47 204.68L93.47 205.01L96.04 197.11L95.04 196.78L92.47 204.68ZM72.6 195.68L73.5 196.2L77.66 189L76.76 188.48L72.6 195.68Z" fill="#212121"/>
<path d="M83.78 30.82L74.37 14.54L71.66 16.1L81.07 32.39C82 31.85 82.86 31.33 83.78 30.82ZM39.63 105.64C39.63 105.11 39.63 104.64 39.63 104.07H20.89V107.2H39.67C39.66 106.68 39.63 106.16 39.63 105.64ZM34.07 54.85L50.35 64.25C50.86 63.33 51.35 62.42 51.91 61.53L35.64 52.14L34.07 54.85ZM216.3 54.85L214.74 52.14L198.41 61.57C198.95 62.46 199.41 63.37 199.97 64.28L216.3 54.85ZM123.59 20.16C124.11 20.16 124.59 20.16 125.16 20.16C125.73 20.16 126.16 20.16 126.72 20.16V1.34003H123.59V20.16ZM166.59 30.84C167.51 31.34 168.41 31.84 169.3 32.4L178.73 16.07L176 14.5L166.59 30.84ZM198.45 149.73L214.76 159.14L216.33 156.43L200 147C199.47 147.93 199 148.83 198.41 149.73H198.45ZM166.59 180.45L176 196.75L178.71 195.19L169.3 178.89C168.37 179.43 167.46 179.94 166.55 180.45H166.59ZM210.68 104.07C210.68 104.59 210.68 105.07 210.68 105.64C210.68 106.21 210.68 106.64 210.68 107.2H229.53V104.07H210.68ZM71.68 195.16L74.39 196.72L83.78 180.46C82.87 179.95 81.96 179.46 81.07 178.9L71.68 195.16ZM34.08 156.42L35.64 159.13L51.91 149.74C51.37 148.85 50.85 147.94 50.35 147.03L34.08 156.42ZM123.59 191.13V209.94H126.72V191.13C126.2 191.13 125.72 191.13 125.16 191.13C124.6 191.13 124.11 191.14 123.59 191.13Z" fill="#212121"/>
<path d="M74.57 81.33H75.09H75.61V76.44H74.61L74.57 81.33ZM63.38 84.33L60.94 80.11L60.04 80.63L62.49 84.88C62.78 84.67 63.07 84.48 63.38 84.31V84.33ZM50.76 105.66C50.76 105.48 50.76 105.31 50.76 105.14H45.87V106.14H50.76C50.78 106 50.76 105.82 50.76 105.64V105.66ZM86.81 84.33C87.11 84.5 87.4 84.69 87.7 84.87L90.15 80.63L89.24 80.11L86.81 84.33ZM100.64 91.51L100.12 90.61L95.88 93C96.06 93.29 96.25 93.58 96.42 93.89L100.64 91.51ZM54.3 93L50.06 90.55L49.54 91.45L53.76 93.89C53.93 93.63 54.12 93.34 54.3 93ZM95.88 118.2L100.12 120.65L100.64 119.75L96.42 117.31C96.25 117.66 96.06 118 95.88 118.24V118.2ZM99.4 105.08C99.4 105.25 99.4 105.42 99.4 105.6C99.4 105.78 99.4 105.95 99.4 106.12H104.29V105.12L99.4 105.08ZM86.8 127L89.24 131.22L90.15 130.7L87.7 126.46C87.4 126.61 87.11 126.8 86.8 127ZM60 130.67L60.9 131.19L63.34 126.97C63.04 126.8 62.75 126.61 62.45 126.43L60 130.67ZM74.53 129.95V134.84H75.53V130H75.01L74.53 129.95ZM49.53 119.79L50.05 120.69L54.3 118.24C54.12 117.95 53.92 117.66 53.76 117.35L49.53 119.79Z" fill="#212121"/>
<path d="M67 77.57L68.8 84.3L69.8 84.04L68 77.3L67 77.57ZM59.72 89.57L54.78 84.62L54.04 85.36L59 90.3L59.72 89.57ZM46.72 98.57L53.47 100.37C53.55 100.04 53.63 99.7 53.73 99.37L46.99 97.57L46.72 98.57ZM80.34 84L81.34 84.26L83.14 77.53L82.14 77.26L80.34 84ZM90.43 89.52C90.68 89.76 90.93 90.01 91.17 90.26L96.11 85.32L95.37 84.58L90.43 89.52ZM103.43 98.52L103.16 97.52L96.43 99.32C96.53 99.65 96.61 99.99 96.69 100.32L103.43 98.52ZM80.34 127.17L82.15 133.92L83.15 133.64L81.35 126.91C81 127.08 80.68 127.16 80.34 127.24V127.17ZM96.43 111.83L103.16 113.64L103.43 112.64L96.69 110.83C96.61 111.23 96.53 111.57 96.43 111.9V111.83ZM90.43 121.65L95.37 126.59L96.11 125.85L91.17 121C90.93 121.23 90.68 121.48 90.43 121.72V121.65ZM67.03 133.65L68.03 133.93L69.84 127.18L68.84 126.92L67.03 133.65ZM46.75 112.65L47.02 113.65L53.76 111.85C53.66 111.51 53.58 111.18 53.5 110.85L46.75 112.65ZM54.07 125.87L54.81 126.61L59.76 121.67C59.5 121.43 59.26 121.18 59.02 120.93L54.07 125.87Z" fill="#212121"/>
<path d="M75.09 135.37C69.21 135.37 63.462 133.626 58.5729 130.36C53.6838 127.093 49.8733 122.45 47.6231 117.017C45.3729 111.585 44.7841 105.607 45.9313 99.84C47.0784 94.0729 49.9099 88.7755 54.0677 84.6177C58.2255 80.4599 63.5229 77.6284 69.29 76.4812C75.057 75.3341 81.0348 75.9229 86.4672 78.173C91.8997 80.4232 96.5428 84.2338 99.8096 89.1229C103.076 94.012 104.82 99.7599 104.82 105.64C104.812 113.522 101.677 121.08 96.1035 126.654C90.5298 132.227 82.9725 135.362 75.09 135.37ZM75.09 76.96C69.4176 76.96 63.8727 78.642 59.1563 81.7934C54.4399 84.9448 50.7639 89.424 48.5931 94.6646C46.4224 99.9052 45.8545 105.672 46.9611 111.235C48.0677 116.799 50.7992 121.909 54.8102 125.92C58.8212 129.931 63.9314 132.662 69.4948 133.769C75.0582 134.876 80.8248 134.308 86.0654 132.137C91.306 129.966 95.7852 126.29 98.9366 121.574C102.088 116.857 103.77 111.312 103.77 105.64C103.749 98.0438 100.719 90.7653 95.3441 85.3977C89.969 80.0301 82.6863 77.0105 75.09 77V76.96Z" fill="#212121"/>
<path d="M79.06 106.85C79.1885 106.459 79.2559 106.051 79.26 105.64C79.2613 105.092 79.1543 104.549 78.9453 104.043C78.7362 103.536 78.429 103.076 78.0416 102.688C77.6541 102.301 77.1939 101.994 76.6873 101.785C76.1808 101.576 75.638 101.469 75.09 101.47C74.5943 101.472 74.1031 101.563 73.64 101.74L56.64 85.74L54.44 85L55.18 87.21L71.18 104.21C70.9346 104.839 70.8474 105.519 70.9258 106.19C71.0043 106.861 71.2461 107.502 71.6301 108.058C72.014 108.614 72.5284 109.067 73.1281 109.377C73.7278 109.688 74.3946 109.847 75.07 109.84C75.4844 109.835 75.8958 109.768 76.29 109.64L79.5 113.04L82.5 110.1L79.06 106.85ZM75.06 107.72C74.6462 107.72 74.2417 107.597 73.8978 107.367C73.5539 107.137 73.286 106.81 73.1281 106.427C72.9703 106.045 72.9295 105.624 73.0109 105.219C73.0924 104.813 73.2924 104.44 73.5857 104.149C73.879 103.857 74.2523 103.658 74.6584 103.579C75.0645 103.499 75.485 103.542 75.8668 103.702C76.2485 103.862 76.5742 104.131 76.8026 104.476C77.0311 104.821 77.152 105.226 77.15 105.64C77.15 106.188 76.9336 106.714 76.5479 107.104C76.1621 107.493 75.6382 107.715 75.09 107.72H75.06Z" fill="#212121"/>
<path d="M154.43 93L150.19 90.55L149.67 91.45L153.89 93.89C154.06 93.62 154.25 93.34 154.43 93ZM163.5 84.27L161.07 80.05L160.16 80.57L162.61 84.81C162.91 84.67 163.2 84.48 163.5 84.31V84.27ZM186.93 84.27C187.23 84.44 187.52 84.63 187.82 84.81L190.27 80.57L189.37 80.04L186.93 84.27ZM200.77 91.45L200.25 90.54L196 93C196.18 93.29 196.37 93.58 196.54 93.89L200.77 91.45ZM150.88 105.6C150.88 105.43 150.88 105.26 150.88 105.08H146V106.08H150.89C150.9 106 150.88 105.82 150.88 105.64V105.6ZM174.69 81.29H175.22H175.74V76.44H174.69V81.29ZM174.69 129.91V134.8H175.74V130H175.22L174.69 129.91ZM149.69 119.75L150.21 120.65L154.45 118.2C154.27 117.91 154.08 117.62 153.91 117.31L149.69 119.75ZM199.54 105.08C199.54 105.25 199.54 105.42 199.54 105.6C199.54 105.78 199.54 105.95 199.54 106.12H204.44V105.12L199.54 105.08ZM196 118.24L200.25 120.69L200.77 119.79L196.54 117.35C196.38 117.66 196.18 118 196 118.24ZM186.93 127L189.37 131.22L190.27 130.7L187.82 126.46C187.52 126.61 187.23 126.8 186.93 127ZM160.17 130.7L161.07 131.22L163.51 127C163.2 126.83 162.92 126.64 162.62 126.46L160.17 130.7Z" fill="#212121"/>
<path d="M175.22 135.37C169.34 135.372 163.591 133.63 158.7 130.364C153.81 127.099 149.998 122.456 147.746 117.024C145.494 111.592 144.904 105.614 146.05 99.8461C147.196 94.0784 150.027 88.7801 154.184 84.6212C158.342 80.4624 163.639 77.6299 169.406 76.482C175.174 75.334 181.152 75.9222 186.585 78.1721C192.018 80.422 196.662 84.2326 199.929 89.1218C203.196 94.0111 204.94 99.7595 204.94 105.64C204.929 113.52 201.795 121.074 196.224 126.647C190.653 132.22 183.1 135.357 175.22 135.37ZM175.22 76.96C169.548 76.96 164.003 78.642 159.286 81.7934C154.57 84.9448 150.894 89.424 148.723 94.6646C146.552 99.9052 145.984 105.672 147.091 111.235C148.198 116.799 150.929 121.909 154.94 125.92C158.951 129.931 164.061 132.662 169.625 133.769C175.188 134.876 180.955 134.308 186.195 132.137C191.436 129.966 195.915 126.29 199.067 121.574C202.218 116.857 203.9 111.312 203.9 105.64C203.879 98.0438 200.849 90.7653 195.474 85.3977C190.099 80.0301 182.816 77.0105 175.22 77V76.96Z" fill="#212121"/>
<path d="M195.86 85L193.66 85.74L176.66 101.74C176.197 101.563 175.706 101.472 175.21 101.47C174.551 101.45 173.897 101.59 173.304 101.877C172.711 102.165 172.196 102.591 171.803 103.121C171.41 103.65 171.151 104.267 171.048 104.918C170.945 105.569 171 106.235 171.21 106.86L167.8 110.07L170.8 113.01L174.01 109.61C174.404 109.738 174.816 109.805 175.23 109.81C176.336 109.81 177.397 109.371 178.179 108.589C178.961 107.807 179.4 106.746 179.4 105.64C179.396 105.144 179.301 104.652 179.12 104.19L195.12 87.19L195.86 85ZM175.22 107.73C174.806 107.732 174.4 107.611 174.055 107.382C173.71 107.153 173.44 106.827 173.281 106.444C173.122 106.062 173.079 105.641 173.16 105.235C173.24 104.828 173.439 104.455 173.732 104.162C174.025 103.869 174.398 103.67 174.805 103.59C175.211 103.509 175.632 103.552 176.014 103.711C176.397 103.87 176.723 104.14 176.952 104.485C177.181 104.83 177.302 105.236 177.3 105.65C177.295 106.199 177.074 106.724 176.684 107.111C176.295 107.499 175.769 107.717 175.22 107.72V107.73Z" fill="#212121"/>
<path d="M124.62 131.4C124.79 131.4 124.96 131.4 125.14 131.4C125.32 131.4 125.49 131.4 125.66 131.4V126.5H124.66L124.62 131.4ZM118.56 127.25L119.56 132.03C119.9 131.95 120.24 131.87 120.56 131.81L119.56 127.03L118.56 127.25ZM107.56 132.38L110.44 136.38L111.27 135.76L108.4 131.81L107.56 132.38ZM112.79 129.24L114.79 133.71C115.1 133.56 115.41 133.4 115.73 133.26L113.73 128.81L112.79 129.24ZM102.18 147.68L97.54 146.17L97.22 147.17L101.84 148.67L102.18 147.68ZM101 152.63L96.14 152.12L96.03 153.12L100.89 153.64C100.93 153.32 101 153 101 152.63ZM103.08 136.54L106.71 139.82C106.94 139.55 107.18 139.3 107.41 139.04L103.77 135.77L103.08 136.54ZM104.34 143.09L100.1 140.64L99.58 141.55L103.79 143.98C104 143.68 104.18 143.39 104.36 143.09H104.34ZM146.44 143.99L150.69 141.54L150.16 140.63L145.9 143.09C146.1 143.39 146.3 143.68 146.46 144L146.44 143.99ZM129.66 131.81C130.01 131.87 130.34 131.95 130.66 132.03L131.66 127.21L130.66 126.99L129.66 131.81ZM149.35 153.67L154.23 153.16L154.13 152.16L149.24 152.67C149.3 153 149.34 153.32 149.37 153.67H149.35ZM148.41 148.67L153.07 147.16L152.75 146.16L148.08 147.68C148.21 148 148.33 148.34 148.43 148.68L148.41 148.67ZM138.98 135.67C139.27 135.87 139.54 136.08 139.82 136.29L142.72 132.29L141.87 131.68L138.98 135.67ZM147.19 136.48L146.49 135.7L142.83 139C143.07 139.25 143.3 139.51 143.53 139.77L147.19 136.48ZM134.54 133.21C134.86 133.35 135.17 133.51 135.48 133.66L137.48 129.16L136.53 128.73L134.54 133.21ZM139 175.68L141.87 179.63L142.72 179.02L139.84 175.02C139.57 175.27 139.3 175.48 139 175.68ZM142.84 172.35L146.48 175.63L147.18 174.86L143.55 171.58C143.33 171.84 143.09 172.1 142.85 172.35H142.84ZM129.67 179.6L130.67 184.38L131.67 184.16L130.67 179.37L129.67 179.6ZM134.55 178.14L136.55 182.59L137.5 182.17L135.5 177.7C135.19 177.84 134.88 178 134.56 178.14H134.55ZM149.25 158.75L154.14 159.27L154.24 158.27L149.36 157.76C149.34 158.06 149.31 158.41 149.26 158.75H149.25ZM148.09 163.75L152.75 165.26L153.07 164.26L148.43 162.75L148.09 163.75ZM145.92 168.34L150.17 170.8L150.69 169.89L146.46 167.45C146.3 167.72 146.11 168 145.93 168.3L145.92 168.34ZM101.83 162.75L97.2 164.25L97.52 165.25L102.16 163.75C102.06 163.37 101.94 163 101.84 162.71L101.83 162.75ZM103.83 167.45L99.62 169.88L100.14 170.78L104.38 168.34C104.17 168 104 167.71 103.8 167.41L103.83 167.45ZM103.12 174.88L103.82 175.66L107.45 172.39L106.75 171.62L103.12 174.88ZM100.93 157.75L96.08 158.26L96.19 159.26L101.04 158.75C101 158.4 100.93 158.06 100.9 157.71L100.93 157.75ZM112.81 182.19L113.81 182.61L115.81 178.18C115.49 178.05 115.18 177.88 114.87 177.73L112.81 182.19ZM107.55 179L108.4 179.61L111.26 175.68C110.97 175.48 110.7 175.26 110.42 175.05L107.55 179ZM118.55 184.14L119.55 184.36L120.55 179.6L119.55 179.37L118.55 184.14ZM124.62 180.01V184.91H125.62V180C125.45 180 125.28 180 125.1 180C124.92 180 124.79 180 124.62 180V180.01Z" fill="#212121"/>
<path d="M125.16 185.43C119.28 185.432 113.531 183.69 108.64 180.424C103.75 177.159 99.9377 172.516 97.6859 167.084C95.4342 161.652 94.844 155.674 95.99 149.906C97.136 144.138 99.9668 138.84 104.124 134.681C108.282 130.522 113.579 127.69 119.346 126.542C125.114 125.394 131.092 125.982 136.525 128.232C141.958 130.482 146.602 134.293 149.869 139.182C153.136 144.071 154.88 149.82 154.88 155.7C154.869 163.58 151.735 171.134 146.164 176.707C140.593 182.28 133.04 185.417 125.16 185.43ZM125.16 127.02C119.484 127.016 113.935 128.696 109.214 131.846C104.493 134.997 100.813 139.477 98.6387 144.719C96.4644 149.962 95.894 155.732 96.9996 161.299C98.1051 166.865 100.837 171.979 104.85 175.993C108.862 180.007 113.975 182.741 119.542 183.848C125.108 184.956 130.878 184.388 136.121 182.215C141.365 180.043 145.846 176.364 148.998 171.644C152.151 166.924 153.832 161.376 153.83 155.7C153.825 148.095 150.803 140.803 145.429 135.422C140.054 130.042 132.765 127.013 125.16 127V127.02Z" fill="#212121"/>
<path d="M129.32 155.7C129.321 154.903 129.092 154.123 128.661 153.453C128.23 152.782 127.615 152.25 126.89 151.92L126.2 128.59L125.2 126.5L124.15 128.59L123.47 151.92C122.76 152.238 122.154 152.75 121.721 153.396C121.289 154.043 121.047 154.798 121.024 155.576C121.001 156.354 121.198 157.122 121.592 157.793C121.985 158.464 122.56 159.011 123.25 159.37L123.11 164.05H127.28L127.14 159.37C127.802 159.014 128.355 158.484 128.739 157.838C129.124 157.191 129.324 156.452 129.32 155.7ZM125.16 157.79C124.746 157.792 124.341 157.671 123.996 157.443C123.651 157.214 123.382 156.888 123.222 156.507C123.062 156.125 123.019 155.705 123.099 155.298C123.178 154.892 123.377 154.519 123.669 154.226C123.961 153.932 124.333 153.732 124.739 153.651C125.144 153.569 125.565 153.61 125.947 153.768C126.33 153.926 126.657 154.194 126.887 154.538C127.117 154.882 127.24 155.286 127.24 155.7C127.237 156.252 127.018 156.78 126.629 157.171C126.239 157.563 125.712 157.785 125.16 157.79Z" fill="#212121"/>
<path d="M200.34 53L124.51 96.43L71 74.35L114.5 107.84L108.11 117.61L124 113.87C124.387 113.932 124.778 113.969 125.17 113.98C125.814 113.977 126.455 113.896 127.08 113.74L143.24 116.07L136.24 107.17L200.34 53ZM125.16 110.56C124.187 110.56 123.236 110.271 122.427 109.731C121.618 109.19 120.987 108.422 120.615 107.523C120.242 106.624 120.145 105.635 120.335 104.68C120.524 103.726 120.993 102.849 121.681 102.161C122.369 101.473 123.246 101.004 124.2 100.815C125.155 100.625 126.144 100.722 127.043 101.095C127.942 101.467 128.71 102.098 129.251 102.907C129.791 103.716 130.08 104.667 130.08 105.64C130.077 106.944 129.558 108.194 128.636 109.116C127.714 110.038 126.464 110.557 125.16 110.56Z" fill="#212121"/>
<path d="M130.87 84.39C130.738 84.3495 130.599 84.3367 130.462 84.3525C130.325 84.3683 130.192 84.4124 130.073 84.4819C129.954 84.5514 129.85 84.6449 129.769 84.7565C129.687 84.868 129.63 84.9952 129.6 85.13L124.6 103.57C124.25 103.664 123.931 103.848 123.676 104.104C123.42 104.36 123.236 104.679 123.143 105.029C123.049 105.379 123.05 105.747 123.144 106.097C123.239 106.446 123.423 106.765 123.68 107.02L98.23 202.02C98.1879 202.153 98.1738 202.293 98.1889 202.431C98.2039 202.569 98.2476 202.703 98.3173 202.823C98.3869 202.944 98.481 203.049 98.5934 203.131C98.7058 203.213 98.834 203.27 98.97 203.3C99.0598 203.31 99.1503 203.31 99.24 203.3C99.4712 203.306 99.6971 203.231 99.8795 203.089C100.062 202.947 100.189 202.746 100.24 202.52L125.7 107.52C126.147 107.414 126.545 107.158 126.825 106.794C127.106 106.429 127.252 105.98 127.24 105.52C127.241 105.245 127.188 104.973 127.083 104.719C126.978 104.465 126.824 104.234 126.63 104.04L131.56 85.64C131.598 85.5126 131.61 85.379 131.596 85.2468C131.582 85.1146 131.542 84.9865 131.477 84.8702C131.413 84.7538 131.326 84.6514 131.222 84.5689C131.118 84.4865 130.998 84.4257 130.87 84.39Z" fill="#E63B35"/>
<path style="mix-blend-mode:multiply" opacity="0.5" d="M263.73 217.46C263.73 226.53 204.73 233.88 131.87 233.88C59.01 233.88 0 226.53 0 217.46C0 208.39 59.04 201 131.87 201C204.7 201 263.73 208.39 263.73 217.46Z" fill="url(#paint0_radial_722_466)"/>
<defs>
<radialGradient id="paint0_radial_722_466" cx="0" cy="0" r="1" gradientUnits="userSpaceOnUse" gradientTransform="translate(128.069 224.938) scale(131.57 16.52)">
<stop stop-color="#111C29" stop-opacity="0.5"/>
<stop offset="0.12" stop-color="#424D5A" stop-opacity="0.5"/>
<stop offset="0.28" stop-color="#838E9A" stop-opacity="0.5"/>
<stop offset="0.42" stop-color="#B2BEC9" stop-opacity="0"/>
<stop offset="0.53" stop-color="#CFDBE6" stop-opacity="0"/>
<stop offset="0.59" stop-color="#DAE6F1" stop-opacity="0"/>
<stop offset="0.63" stop-color="#E4ECF5" stop-opacity="0"/>
<stop offset="0.73" stop-color="#F3F7FA" stop-opacity="0"/>
<stop offset="0.84" stop-color="#FCFDFE" stop-opacity="0"/>
<stop offset="1" stop-color="white" stop-opacity="0"/>
</radialGradient>
</defs>
</svg>
