<svg width="264" height="235" viewBox="0 0 264 235" fill="none" xmlns="http://www.w3.org/2000/svg">
<path d="M125.15 209.64C104.42 209.634 84.1569 203.481 66.9233 191.96C49.6896 180.439 36.2593 164.066 28.3303 144.912C20.4013 125.758 18.3298 104.683 22.3777 84.3522C26.4256 64.0211 36.4111 45.3468 51.0716 30.6904C65.7322 16.0341 84.4093 6.05395 104.742 2.01188C125.074 -2.03019 146.148 0.0473442 165.3 7.9818C184.451 15.9163 200.82 29.3513 212.337 46.5882C223.853 63.8251 230 84.0898 230 104.82C229.968 132.615 218.91 159.263 199.253 178.914C179.596 198.566 152.945 209.616 125.15 209.64ZM125.15 1.03998C104.624 1.03998 84.5594 7.12657 67.4929 18.5301C50.4264 29.9336 37.1246 46.1418 29.2698 65.1051C21.4149 84.0684 19.3597 104.935 23.3641 125.066C27.3684 145.198 37.2526 163.69 51.7665 178.204C66.2803 192.717 84.7721 202.602 104.903 206.606C125.035 210.61 145.902 208.555 164.865 200.7C183.828 192.845 200.036 179.544 211.44 162.477C222.843 145.411 228.93 125.346 228.93 104.82C228.911 77.2978 217.973 50.9076 198.515 31.4428C179.058 11.9779 152.672 1.02912 125.15 0.999982V1.03998Z" fill="#212121"/>
<path d="M77.64 21.47L73.47 14.24L72.57 14.76L76.74 22L77.64 21.47ZM63.44 20.75L68.35 27.5L69.2 26.9L64.29 20.14L63.44 20.75ZM55 27.67L60.57 33.86C60.83 33.62 61.1 33.4 61.36 33.17L55.77 27L55 27.67ZM96 13.39L93.43 5.47003L92.43 5.80003L95 13.73L96 13.39ZM105.72 10.84L104 2.70003L103 2.92003L104.74 11.08C105 11 105.37 10.91 105.72 10.84ZM47.32 35.43L53.52 41.01C53.75 40.75 53.97 40.48 54.21 40.22L48 34.65L47.32 35.43ZM86.61 17L83.22 9.39003L82.22 9.81003L85.61 17.43L86.61 17ZM37.72 65.31L30.11 61.92L29.69 62.92L37.29 66.3C37.43 65.94 37.58 65.63 37.72 65.31ZM31.41 84.31L23.27 82.58L23.06 83.58L31.18 85.3C31.25 85 31.34 84.7 31.41 84.36V84.31ZM29.79 94.22L21.51 93.35L21.4 94.35L29.67 95.22L29.79 94.22ZM34.06 74.62L26.15 72.05L25.83 73.05L33.73 75.62L34.06 74.62ZM47.85 48L41.1 43.1L40.49 43.94L47.24 48.85C47.45 48.56 47.64 48.28 47.85 48ZM42.33 56.39L35.11 52.22L34.59 53.13L41.81 57.29C42 57 42.16 56.69 42.33 56.39ZM115.64 9.39003L114.77 1.00003L113.77 1.11003L114.64 9.42003L115.64 9.39003ZM203.05 35.4L202.35 34.62L196.12 40.24C196.35 40.49 196.57 40.76 196.8 41.02L203.05 35.4ZM208.5 57.31L215.78 53.11L215.26 52.2L208 56.4C208.16 56.7 208.33 57 208.5 57.31ZM213.03 66.31L220.69 62.9L220.26 61.9L212.6 65.31C212.74 65.64 212.88 66 213 66.27L213.03 66.31ZM203.08 48.9L209.88 43.96L209.27 43.11L202.47 48C202.68 48.29 202.87 48.58 203.08 48.86V48.9ZM219.08 85.42L227.27 83.68L227.05 82.68L218.85 84.42C219 84.7 219.06 85 219.13 85.38L219.08 85.42ZM220.58 95.35L228.92 94.47L228.81 93.47L220.47 94.35C220.56 94.62 220.6 95 220.63 95.31L220.58 95.35ZM216.58 75.71L224.58 73.12L224.25 72.12L216.25 74.71C216.36 75 216.48 75.33 216.58 75.67V75.71ZM29.2 104.82C29.2 104.65 29.2 104.47 29.2 104.3H20.88V105.3H29.2C29.21 105.17 29.2 105 29.2 104.82ZM181.13 26.91L181.98 27.52L186.92 20.72L186.07 20.11L181.13 26.91ZM144.62 10.85L145.62 11.08L147.37 2.88003L146.37 2.66003L144.62 10.85ZM189 33.19C189.26 33.42 189.53 33.64 189.78 33.87L195.4 27.64L194.62 26.94L189 33.19ZM154.33 13.4C154.66 13.51 154.99 13.63 155.33 13.73L157.92 5.73003L156.92 5.40003L154.33 13.4ZM134.69 9.34003L135.69 9.46003L136.56 1.11003L135.56 1.00003L134.69 9.34003ZM124.63 8.88003H125.63V0.530029H124.63V8.88003ZM163.72 17L164.67 17.43L168.09 9.76003L167.09 9.34003L163.72 17ZM172.72 21.52L173.62 22.04L177.82 14.77L176.92 14.25L172.72 21.52ZM41.81 152.35L34.6 156.5L35.12 157.41L42.33 153.25C42.15 153 42 152.65 41.81 152.35ZM189 176.46L194.6 182.69L195.38 181.99L189.78 175.77C189.5 176 189.23 176.23 189 176.46ZM181.16 182.74L186.08 189.51L186.93 188.9L182 182.13L181.16 182.74ZM196.16 169.41L202.38 175.01L203.07 174.23L196.85 168.62C196.57 168.88 196.35 169.15 196.12 169.41H196.16ZM202.52 161.63L209.29 166.55L209.9 165.71L203.12 160.78L202.52 161.63ZM172.72 188.17L176.9 195.42L177.81 194.9L173.62 187.65L172.72 188.17ZM154.36 196.25L156.93 204.18L157.93 203.86L155.35 195.92L154.36 196.25ZM163.75 192.69L167.15 200.32L168.1 199.9L164.7 192.26L163.75 192.69ZM216.25 135L224.25 137.59L224.57 136.59L216.59 134L216.25 135ZM208 153.24L215.25 157.42L215.78 156.52L208.52 152.33L208 153.24ZM218.91 125.24L227.11 126.98L227.32 125.98L219.15 124.25C219.07 124.6 219 124.93 218.9 125.27L218.91 125.24ZM221.1 104.24C221.1 104.41 221.1 104.59 221.1 104.76C221.1 104.93 221.1 105.11 221.1 105.28H229.5V104.28L221.1 104.24ZM220.53 115.3L228.87 116.18L228.98 115.18L220.65 114.31L220.53 115.3ZM212.61 144.3L220.26 147.71L220.68 146.76L213 143.36C212.89 143.68 212.74 144 212.6 144.31L212.61 144.3ZM144.61 198.79L146.34 206.95L147.34 206.73L145.61 198.56L144.61 198.79ZM124.61 200.79V209.14H125.61V200.79H124.61ZM47.31 174.22L48 175L54.18 169.44C53.95 169.18 53.73 168.91 53.49 168.65L47.31 174.22ZM47.22 160.81L40.48 165.71L41.09 166.55L47.82 161.66L47.22 160.81ZM55 182L55.77 182.69L61.35 176.5L60.56 175.82L55 182ZM37.27 143.41L29.69 146.78L30.11 147.78L37.7 144.4C37.57 144 37.42 143.69 37.28 143.38L37.27 143.41ZM31.16 124.29L23.06 126L23.28 127L31.41 125.27C31.33 124.94 31.24 124.61 31.17 124.26L31.16 124.29ZM33.72 134.01L25.83 136.58L26.15 137.58L34.05 135.01C34 134.64 33.83 134.31 33.73 134L33.72 134.01ZM63.45 188.91L64.29 189.52L69.19 182.78L68.34 182.17L63.45 188.91ZM134.66 200.34L135.53 208.64L136.53 208.53L135.65 200.22L134.66 200.34ZM113.74 208.5L114.74 208.61L115.61 200.34L114.61 200.22L113.74 208.5ZM29.66 114.36L21.4 115.23L21.5 116.23L29.78 115.36L29.66 114.36ZM103 206.71L104 206.92L105.73 198.81C105.38 198.74 105.05 198.65 104.73 198.57L103 206.71ZM82.3 199.87L83.3 200.29L86.68 192.7L85.68 192.27L82.3 199.87ZM72.6 194.87L73.5 195.39L77.66 188.19L76.76 187.67L72.6 194.87ZM92.47 203.87L93.47 204.19L96.04 196.3L95.04 195.96L92.47 203.87Z" fill="#212121"/>
<path d="M80.63 24.56L74.37 13.72L71.66 15.29L77.92 26.12C78.81 25.59 79.72 25.07 80.63 24.56ZM34.07 54L44.9 60.25C45.41 59.34 45.9 58.43 46.46 57.54L35.64 51.29L34.07 54ZM203.85 57.56C204.39 58.45 204.85 59.36 205.41 60.27L216.3 54L214.74 51.29L203.85 57.56ZM20.85 103.22V106.35H33.37C33.37 105.83 33.37 105.35 33.37 104.79C33.37 104.23 33.37 103.79 33.37 103.22H20.85ZM169.7 24.57C170.61 25.08 171.52 25.57 172.41 26.13L178.69 15.25L176 13.69L169.7 24.57ZM123.59 13.08C124.11 13.08 124.59 13.08 125.16 13.08C125.73 13.08 126.16 13.08 126.72 13.08V0.530029H123.59V13.08ZM71.68 194.34L74.39 195.91L80.64 185.09C79.72 184.58 78.82 184.09 77.92 183.52L71.68 194.34ZM34.08 155.6L35.64 158.31L46.46 152.07C45.92 151.17 45.41 150.27 44.9 149.35L34.08 155.6ZM216.9 103.25C216.9 103.78 216.9 104.25 216.9 104.82C216.9 105.39 216.9 105.82 216.9 106.38H229.49V103.25H216.9ZM203.9 152.05L214.76 158.33L216.33 155.62L205.46 149.34C204.91 150.25 204.39 151.16 203.86 152.05H203.9ZM169.73 185.05L176 195.94L178.71 194.37L172.44 183.52C171.51 184.05 170.6 184.57 169.69 185.08L169.73 185.05ZM123.63 196.54V209.09H126.76V196.57C126.24 196.57 125.76 196.57 125.2 196.57C124.64 196.57 124.11 196.58 123.59 196.57L123.63 196.54Z" fill="#212121"/>
<path d="M43.47 112.24C46.92 110.84 49.27 108.93 50.05 105.55C49.0646 106.159 47.9286 106.482 46.77 106.48C43.77 106.48 41.67 104.61 41.67 101.75C41.67 98.68 43.87 96.53 47.14 96.53C50.97 96.53 52.85 98.85 52.85 102.8C52.85 108.38 49.07 111.71 43.85 113.18L43.47 112.24ZM50.35 102.8C50.35 99.58 49.35 97.8 47.14 97.8C45.24 97.8 44.14 99.24 44.14 101.8C44.14 104 45.14 105.3 46.99 105.3C47.6183 105.301 48.2393 105.165 48.8093 104.9C49.3794 104.636 49.8847 104.25 50.29 103.77C50.32 103.43 50.35 103.13 50.35 102.8Z" fill="#212121"/>
<path d="M52.76 139.72C52.76 137.25 54.84 135.65 57.84 135.65C60.84 135.65 62.74 137.15 62.74 139.52C62.74 140.92 61.64 142.22 60.01 143.13C61.87 143.95 63.52 145.13 63.52 147.6C63.52 150.41 61.27 152.11 57.89 152.11C54.51 152.11 52.11 150.63 52.11 147.73C52.11 145.83 53.54 144.35 55.29 143.35C54.5445 143.081 53.9009 142.587 53.4478 141.937C52.9946 141.287 52.7544 140.512 52.76 139.72ZM54.54 147.6C54.507 148.044 54.5719 148.491 54.7299 148.907C54.8879 149.324 55.1352 149.701 55.4545 150.011C55.7739 150.322 56.1574 150.559 56.5782 150.706C56.999 150.852 57.4467 150.905 57.89 150.86C58.3233 150.891 58.7581 150.827 59.1644 150.673C59.5706 150.519 59.9386 150.279 60.2429 149.969C60.5472 149.659 60.7805 149.287 60.9268 148.878C61.073 148.469 61.1288 148.033 61.09 147.6C61.09 145.23 58.67 144.68 56.44 143.83C55.8135 144.229 55.3063 144.79 54.9719 145.454C54.6375 146.117 54.4883 146.859 54.54 147.6ZM60.44 139.5C60.4334 138.787 60.1436 138.105 59.6345 137.605C59.1253 137.105 58.4384 136.828 57.725 136.835C57.0115 136.842 56.33 137.131 55.8302 137.641C55.3304 138.15 55.0534 138.837 55.06 139.55C55.06 141.2 56.81 141.85 58.71 142.55C59.2566 142.257 59.7091 141.814 60.0152 141.275C60.3213 140.735 60.4686 140.12 60.44 139.5Z" fill="#212121"/>
<path d="M81.39 164.39C81.39 164.39 83.76 164.44 86.44 164.44C89.12 164.44 91.59 164.39 91.59 164.39L92.07 165.56C92.07 165.56 86.19 174.22 86.19 177.64C86.1704 178.024 86.2449 178.407 86.407 178.755C86.5691 179.104 86.8138 179.408 87.12 179.64C86.9209 179.934 86.6604 180.18 86.3565 180.363C86.0526 180.546 85.7126 180.661 85.36 180.7C84.36 180.7 83.59 179.7 83.59 178.22C83.59 175.46 85.29 173.39 90.19 166.31H83C82.6835 167.238 82.4885 168.202 82.42 169.18C82.2513 169.231 82.0763 169.258 81.9 169.26C81.7206 169.257 81.5423 169.23 81.37 169.18C81.25 167.54 80.97 165.46 80.97 164.78L81.39 164.39Z" fill="#212121"/>
<path d="M159.92 171.91L160.62 164.76L161.12 164.35C162.57 164.4 163.69 164.43 165.12 164.43C166.55 164.43 167.55 164.43 168.45 164.38L168.97 164.78C168.949 165.301 168.886 165.819 168.78 166.33H162L161.55 170.96C162.539 170.507 163.612 170.266 164.7 170.25C167.9 170.25 169.95 172.06 169.95 175.31C169.97 176.039 169.84 176.764 169.566 177.44C169.293 178.116 168.883 178.728 168.361 179.238C167.84 179.748 167.219 180.144 166.538 180.403C165.856 180.661 165.128 180.776 164.4 180.74C161.33 180.74 159.07 179.31 159.07 177.26C159.043 177.047 159.064 176.831 159.13 176.627C159.195 176.423 159.305 176.236 159.451 176.079C159.597 175.922 159.775 175.798 159.973 175.717C160.172 175.636 160.386 175.6 160.6 175.61C161.072 175.606 161.531 175.765 161.9 176.06C161.752 176.397 161.677 176.762 161.68 177.13C161.69 177.468 161.771 177.8 161.916 178.106C162.061 178.412 162.268 178.684 162.523 178.906C162.779 179.127 163.077 179.294 163.4 179.394C163.723 179.495 164.064 179.527 164.4 179.49C166.5 179.49 167.6 178.06 167.6 175.34C167.6 172.91 166.38 171.58 164.23 171.58C162.955 171.61 161.711 171.983 160.63 172.66L159.92 171.91Z" fill="#212121"/>
<path d="M186.82 147L192.34 135.89C193.141 135.823 193.94 136.047 194.59 136.52L188.94 146.4H194.57V142C194.946 142.022 195.32 141.925 195.638 141.722C195.956 141.519 196.202 141.221 196.34 140.87H197V146.32L199.32 146.82V147.82H196.89V151.82H194.62V147.82H187L186.82 147Z" fill="#212121"/>
<path d="M201.76 103.81C204.42 103.74 205.97 102.64 205.97 100.46C206.019 100.114 205.99 99.7603 205.884 99.4267C205.778 99.0931 205.598 98.7877 205.358 98.5331C205.118 98.2785 204.823 98.0813 204.496 97.9561C204.17 97.8309 203.819 97.781 203.47 97.81C203.151 97.7732 202.827 97.8046 202.521 97.9021C202.215 97.9995 201.933 98.1609 201.694 98.3755C201.455 98.5901 201.264 98.853 201.134 99.1468C201.004 99.4406 200.938 99.7587 200.94 100.08C200.941 100.431 201.034 100.776 201.21 101.08C200.829 101.391 200.352 101.561 199.86 101.56C199.09 101.56 198.59 100.88 198.59 99.83C198.59 98.03 200.59 96.53 203.51 96.53C206.43 96.53 208.45 98.13 208.45 100.43C208.45 101.83 207.87 103.43 204.99 104.33C207.69 104.98 208.64 106.51 208.64 108.46C208.64 111.06 206.57 113.04 203.26 113.04C199.95 113.04 197.93 111.64 197.93 109.39C197.924 109.187 197.96 108.985 198.038 108.797C198.115 108.609 198.231 108.44 198.378 108.3C198.525 108.161 198.701 108.053 198.892 107.986C199.084 107.919 199.288 107.893 199.49 107.91C199.95 107.921 200.395 108.078 200.76 108.36C200.619 108.727 200.545 109.117 200.54 109.51C200.54 110.86 201.59 111.79 203.39 111.79C205.19 111.79 206.29 110.49 206.29 108.46C206.29 106.43 204.79 104.96 201.76 104.96V103.81Z" fill="#212121"/>
<path d="M187.64 72.33C193.64 67.16 195.5 64.63 195.5 61.88C195.5 59.83 194.57 58.8 192.77 58.8C192.43 58.7767 192.089 58.8236 191.767 58.9376C191.446 59.0516 191.151 59.2305 190.902 59.463C190.653 59.6955 190.454 59.9767 190.317 60.2893C190.181 60.6019 190.111 60.9391 190.11 61.28C190.12 61.8444 190.317 62.3896 190.67 62.83C190.489 63.0119 190.274 63.156 190.037 63.2539C189.8 63.3517 189.546 63.4014 189.29 63.4C188.47 63.4 187.67 62.88 187.67 61.4C187.67 59.4 189.94 57.52 192.77 57.52C195.99 57.52 198 59.25 198 62.1C198 64.78 196 67.58 190.47 71.85H198.65V73.85H187.65L187.64 72.33Z" fill="#212121"/>
<path d="M160.22 44.37C161.448 44.2855 162.658 44.0228 163.81 43.59V31.66H160.26V30.51C162.008 30.3514 163.707 29.8484 165.26 29.03L166.16 29.38V43.59C167.234 43.9851 168.352 44.2471 169.49 44.37L169.39 45.29H160.13L160.22 44.37Z" fill="#212121"/>
<path d="M114.52 33.91C115.751 33.8254 116.964 33.5626 118.12 33.13V21.2H114.57V20.05C116.318 19.8927 118.018 19.3897 119.57 18.57L120.47 18.92V33.13C121.544 33.5244 122.662 33.7863 123.8 33.91L123.7 34.83H114.44L114.52 33.91Z" fill="#212121"/>
<path d="M125.41 33.31C131.41 28.13 133.26 25.6 133.26 22.85C133.26 20.8 132.34 19.77 130.53 19.77C130.191 19.7481 129.85 19.796 129.53 19.9107C129.21 20.0254 128.917 20.2044 128.669 20.4368C128.42 20.6692 128.222 20.9499 128.087 21.2618C127.951 21.5736 127.881 21.9099 127.88 22.25C127.891 22.8126 128.084 23.3565 128.43 23.8C128.252 23.983 128.039 24.1285 127.803 24.2281C127.568 24.3277 127.315 24.3793 127.06 24.38C126.23 24.38 125.43 23.85 125.43 22.38C125.43 20.38 127.71 18.5 130.53 18.5C133.76 18.5 135.76 20.23 135.76 23.08C135.76 25.76 133.76 28.56 128.23 32.84H136.41V34.84H125.41V33.31Z" fill="#212121"/>
<path d="M81.09 44.37C82.3213 44.2843 83.5337 44.0216 84.69 43.59V31.66H81.14V30.51C82.8883 30.3528 84.5878 29.8497 86.14 29.03L87.04 29.38V43.59C88.1139 43.9851 89.2323 44.2471 90.37 44.37L90.27 45.29H81L81.09 44.37Z" fill="#212121"/>
<path d="M91.82 44.37C93.0516 44.2865 94.2643 44.0237 95.42 43.59V31.66H91.87V30.51C93.6185 30.3543 95.3184 29.8512 96.87 29.03L97.78 29.38V43.59C98.854 43.9851 99.9723 44.2471 101.11 44.37L101 45.29H91.75L91.82 44.37Z" fill="#212121"/>
<path d="M52.18 73C53.4146 72.9152 54.6305 72.6525 55.79 72.22V60.24H52.23V59.09C53.9778 58.9374 55.6777 58.4377 57.23 57.62L58.14 57.96V72.17C59.211 72.5748 60.3306 72.8371 61.47 72.95L61.36 73.88H52.11L52.18 73Z" fill="#212121"/>
<path d="M63.05 65.77C63.05 60.77 65.05 57.57 69.23 57.57C73.41 57.57 75.41 60.72 75.41 65.77C75.41 70.82 73.41 74.03 69.23 74.03C65.05 74.03 63.05 70.8 63.05 65.77ZM72.95 65.77C72.95 61.59 72.33 58.89 69.23 58.89C66.13 58.89 65.5 61.59 65.5 65.77C65.5 69.95 66.12 72.7 69.23 72.7C72.34 72.7 73 70 73 65.77H72.95Z" fill="#212121"/>
<path d="M113.44 133.56L111 129.33L110.1 129.86L112.55 134.1C112.85 133.92 113.14 133.73 113.44 133.56ZM99.6 140.74L103.83 143.18C104 142.87 104.19 142.58 104.37 142.28L100.12 139.83L99.6 140.74ZM124.6 130.58C124.78 130.58 124.95 130.58 125.13 130.58C125.31 130.58 125.47 130.58 125.65 130.58V125.68H124.65L124.6 130.58ZM150.68 140.74L150.15 139.83L145.91 142.28C146.09 142.58 146.29 142.87 146.46 143.17L150.68 140.74ZM100.79 154.89C100.79 154.71 100.79 154.54 100.79 154.37H96V155.37H100.9C100.84 155.23 100.82 155.06 100.82 154.89H100.79ZM136.79 133.56C137.09 133.73 137.38 133.92 137.68 134.1L140.13 129.86L139.23 129.33L136.79 133.56ZM145.86 167.49L150.1 169.94L150.63 169.04L146.41 166.6C146.32 166.91 146.12 167.19 145.94 167.49H145.86ZM136.79 176.22L139.23 180.44L140.13 179.92L137.68 175.67C137.46 175.85 137.17 176.05 136.87 176.22H136.79ZM149.39 154.37C149.39 154.54 149.39 154.71 149.39 154.89C149.39 155.07 149.39 155.23 149.39 155.41H154.28V154.41L149.39 154.37ZM124.55 179.19V184.09H125.55V179.19H125.03C125 179.22 124.81 179.2 124.63 179.19H124.55ZM99.6 169L100.12 169.9L104.37 167.45C104.19 167.15 104 166.86 103.83 166.56L99.6 169ZM110.1 179.88L111.01 180.4L113.45 176.18C113.14 176.01 112.85 175.81 112.55 175.63L110.1 179.88Z" fill="#212121"/>
<path d="M117.09 126.81L118.9 133.55C119.23 133.45 119.57 133.37 119.9 133.29L118.09 126.54L117.09 126.81ZM109.82 138.81L104.82 133.87L104.09 134.61L109.03 139.55C109.32 139.3 109.56 139.05 109.82 138.81ZM96.82 147.81L103.57 149.62C103.65 149.28 103.73 148.94 103.83 148.62L97.09 146.81L96.82 147.81ZM130.41 133.27C130.75 133.35 131.09 133.43 131.41 133.53L133.22 126.79L132.22 126.52L130.41 133.27ZM140.5 138.79C140.76 139.03 141 139.28 141.24 139.53L146.18 134.59L145.44 133.85L140.5 138.79ZM153.5 147.79L153.23 146.79L146.5 148.6C146.59 148.93 146.67 149.27 146.76 149.6L153.5 147.79ZM140.5 170.92L145.44 175.86L146.18 175.13L141.24 170.19C141 170.48 140.75 170.72 140.49 171L140.5 170.92ZM130.41 176.44L132.22 183.19L133.22 182.92L131.41 176.18C131.08 176.32 130.74 176.4 130.4 176.48L130.41 176.44ZM146.5 161.11L153.24 162.91L153.51 161.91L146.77 160.11C146.67 160.48 146.59 160.82 146.49 161.15L146.5 161.11ZM104.15 175.11L104.88 175.85L109.88 170.9C109.63 170.66 109.38 170.42 109.14 170.16L104.15 175.11ZM117.15 182.9L118.15 183.17L119.96 176.42C119.62 176.34 119.28 176.26 118.96 176.16L117.15 182.9ZM96.87 161.9L97.14 162.9L103.88 161.09C103.78 160.76 103.7 160.42 103.62 160.09L96.87 161.9Z" fill="#212121"/>
<path d="M125.16 184.61C119.279 184.612 113.53 182.87 108.639 179.604C103.749 176.338 99.9364 171.695 97.685 166.262C95.4335 160.829 94.8439 154.85 95.9908 149.082C97.1376 143.314 99.9693 138.016 104.128 133.858C108.286 129.699 113.584 126.868 119.352 125.721C125.12 124.574 131.099 125.164 136.532 127.415C141.965 129.666 146.608 133.479 149.874 138.369C153.14 143.26 154.882 149.009 154.88 154.89C154.869 162.769 151.735 170.322 146.163 175.894C140.592 181.465 133.039 184.599 125.16 184.61ZM125.16 126.2C119.485 126.196 113.936 127.875 109.215 131.025C104.495 134.175 100.814 138.655 98.6396 143.897C96.4651 149.139 95.8941 154.908 96.9988 160.475C98.1036 166.041 100.834 171.155 104.846 175.17C108.858 179.184 113.97 181.919 119.535 183.027C125.101 184.136 130.871 183.569 136.115 181.398C141.358 179.227 145.84 175.55 148.993 170.831C152.147 166.113 153.83 160.565 153.83 154.89C153.822 147.287 150.8 139.997 145.425 134.619C140.051 129.241 132.763 126.213 125.16 126.2Z" fill="#212121"/>
<path d="M145.8 134.24L143.74 135.13L127.21 151.27C126.577 150.903 125.859 150.711 125.127 150.711C124.396 150.712 123.677 150.905 123.045 151.273C122.413 151.64 121.888 152.168 121.526 152.804C121.163 153.439 120.975 154.159 120.98 154.89C120.979 155.59 121.158 156.279 121.5 156.89L119.56 158.78C119.238 158.722 118.907 158.742 118.594 158.837C118.28 158.933 117.995 159.102 117.76 159.33C117.5 159.577 117.309 159.886 117.203 160.228C117.097 160.57 117.081 160.934 117.156 161.284C117.231 161.634 117.395 161.959 117.632 162.227C117.869 162.496 118.17 162.699 118.508 162.818C118.846 162.936 119.209 162.966 119.562 162.904C119.914 162.842 120.245 162.69 120.522 162.463C120.8 162.237 121.014 161.943 121.145 161.609C121.276 161.276 121.319 160.915 121.27 160.56L123.19 158.56C123.804 158.893 124.491 159.069 125.19 159.07C125.919 159.072 126.636 158.882 127.268 158.52C127.901 158.157 128.426 157.634 128.792 157.003C129.158 156.373 129.352 155.657 129.353 154.928C129.354 154.198 129.164 153.482 128.8 152.85L144.95 136.31L145.8 134.24ZM125.16 157C124.746 157.002 124.34 156.881 123.995 156.652C123.65 156.423 123.38 156.097 123.221 155.714C123.062 155.332 123.019 154.911 123.1 154.505C123.18 154.098 123.379 153.725 123.672 153.432C123.965 153.139 124.338 152.94 124.745 152.86C125.151 152.779 125.572 152.822 125.954 152.981C126.337 153.14 126.663 153.41 126.892 153.755C127.121 154.1 127.242 154.506 127.24 154.92C127.237 155.471 127.017 155.998 126.628 156.388C126.238 156.777 125.711 156.997 125.16 157Z" fill="#212121"/>
<path d="M200.34 52.17L197.67 52L180 63.8C178.971 63.0808 177.749 62.6887 176.493 62.6751C175.238 62.6614 174.007 63.0268 172.963 63.7235C171.918 64.4202 171.108 65.4158 170.639 66.5802C170.169 67.7446 170.061 69.0235 170.33 70.25L129.24 97.59C128 96.8697 126.594 96.487 125.16 96.48C123.419 96.4809 121.722 97.0303 120.31 98.05L98.85 86.83C99.0057 85.5858 98.7837 84.3236 98.2126 83.2073C97.6416 82.091 96.748 81.1723 95.648 80.5705C94.548 79.9688 93.2924 79.7118 92.0444 79.8329C90.7964 79.9541 89.6137 80.4478 88.65 81.25L70 71.05L67.36 71.45L68.36 73.93L86.49 85C86.2832 86.2332 86.4516 87.5002 86.9735 88.6365C87.4954 89.7729 88.3467 90.7262 89.417 91.3729C90.4873 92.0196 91.7271 92.3298 92.9758 92.2633C94.2245 92.1968 95.4244 91.7567 96.42 91L116.89 104C116.89 104.27 116.81 104.53 116.81 104.8C116.771 105.92 116.958 107.037 117.36 108.083C117.762 109.129 118.371 110.084 119.149 110.89C119.928 111.696 120.861 112.338 121.893 112.775C122.925 113.213 124.034 113.439 125.155 113.439C126.276 113.439 127.385 113.213 128.417 112.775C129.449 112.338 130.382 111.696 131.161 110.89C131.939 110.084 132.548 109.129 132.95 108.083C133.352 107.037 133.539 105.92 133.5 104.8C133.489 104.34 133.442 103.882 133.36 103.43L173.09 74.21C174.151 74.8804 175.39 75.2151 176.644 75.1704C177.899 75.1257 179.111 74.7038 180.122 73.9597C181.133 73.2155 181.895 72.1838 182.311 70.9993C182.726 69.8148 182.775 68.5325 182.45 67.32L199.59 54.72L200.34 52.17ZM96.25 88.17C95.8375 88.8839 95.2227 89.4595 94.4832 89.824C93.7437 90.1886 92.9127 90.3258 92.0953 90.2182C91.2778 90.1106 90.5107 89.7631 89.8907 89.2197C89.2707 88.6762 88.8257 87.9612 88.6119 87.1649C88.3982 86.3686 88.4253 85.5268 88.6898 84.7459C88.9543 83.965 89.4444 83.2801 90.0981 82.7776C90.7518 82.2752 91.5398 81.9778 92.3624 81.923C93.1851 81.8683 94.0055 82.0586 94.72 82.47C95.6693 83.0241 96.3621 83.9298 96.6485 84.991C96.9349 86.0523 96.7917 87.1836 96.25 88.14V88.17ZM125.16 109.77C124.187 109.77 123.236 109.481 122.427 108.941C121.617 108.4 120.987 107.632 120.615 106.733C120.242 105.834 120.145 104.845 120.335 103.89C120.524 102.936 120.993 102.059 121.681 101.371C122.369 100.683 123.246 100.214 124.2 100.025C125.155 99.8347 126.144 99.9321 127.043 100.305C127.942 100.677 128.71 101.308 129.251 102.117C129.791 102.926 130.08 103.877 130.08 104.85C130.069 106.149 129.547 107.391 128.626 108.307C127.704 109.222 126.459 109.737 125.16 109.74V109.77ZM178.81 72.38C178.135 72.8593 177.333 73.1276 176.506 73.1507C175.679 73.1738 174.863 72.9507 174.163 72.5098C173.462 72.0689 172.908 71.43 172.571 70.674C172.234 69.918 172.129 69.079 172.27 68.2633C172.41 67.4476 172.79 66.6919 173.36 66.0921C173.93 65.4922 174.666 65.0752 175.473 64.8939C176.281 64.7125 177.124 64.775 177.896 65.0734C178.668 65.3718 179.334 65.8927 179.81 66.57C180.435 67.4718 180.681 68.5834 180.494 69.6649C180.307 70.7463 179.702 71.7107 178.81 72.35V72.38Z" fill="#212121"/>
<path d="M130.83 83.67C130.698 83.6277 130.559 83.6133 130.421 83.6277C130.283 83.6421 130.15 83.685 130.03 83.7537C129.909 83.8223 129.804 83.9152 129.722 84.0264C129.639 84.1377 129.581 84.2649 129.55 84.4L124.61 102.85C124.168 102.965 123.777 103.224 123.498 103.586C123.219 103.949 123.069 104.393 123.07 104.85C123.069 105.125 123.122 105.397 123.227 105.651C123.332 105.905 123.486 106.136 123.68 106.33L109.26 160.13C109.157 160.124 109.053 160.124 108.95 160.13C107.774 160.128 106.631 160.524 105.708 161.253C104.785 161.983 104.137 163.004 103.868 164.149C103.599 165.294 103.725 166.497 104.227 167.561C104.729 168.625 105.575 169.488 106.63 170.01L98.23 201.33C98.1878 201.463 98.1738 201.603 98.1888 201.741C98.2039 201.879 98.2476 202.013 98.3173 202.133C98.3869 202.254 98.4809 202.359 98.5933 202.441C98.7057 202.523 98.834 202.58 98.97 202.61C99.0594 202.625 99.1506 202.625 99.24 202.61C99.4711 202.616 99.6971 202.541 99.8794 202.399C100.062 202.257 100.189 202.056 100.24 201.83L108.65 170.48C108.75 170.48 108.86 170.48 108.96 170.48C110.101 170.467 111.207 170.083 112.109 169.384C113.012 168.686 113.662 167.712 113.96 166.61C114.266 165.451 114.164 164.222 113.67 163.129C113.177 162.036 112.322 161.147 111.25 160.61L125.67 106.8C126.02 106.706 126.339 106.522 126.594 106.266C126.85 106.01 127.034 105.691 127.127 105.341C127.221 104.991 127.22 104.623 127.126 104.273C127.031 103.924 126.847 103.605 126.59 103.35L131.52 84.94C131.561 84.8113 131.576 84.6757 131.563 84.5412C131.551 84.4068 131.511 84.2762 131.446 84.1576C131.382 84.0389 131.294 83.9345 131.188 83.8507C131.082 83.7669 130.96 83.7054 130.83 83.67ZM111.67 163.67C111.877 164.026 112.011 164.42 112.065 164.829C112.118 165.237 112.089 165.653 111.98 166.05C111.757 166.846 111.232 167.523 110.516 167.936C109.8 168.35 108.951 168.466 108.15 168.26C107.752 168.156 107.379 167.973 107.052 167.724C106.725 167.474 106.451 167.162 106.246 166.806C106.04 166.45 105.907 166.057 105.855 165.649C105.802 165.241 105.831 164.827 105.94 164.43C106.116 163.767 106.505 163.181 107.047 162.762C107.589 162.343 108.255 162.113 108.94 162.11C109.217 162.112 109.492 162.149 109.76 162.22C110.161 162.327 110.537 162.513 110.865 162.767C111.193 163.021 111.466 163.338 111.67 163.7V163.67Z" fill="#E63B35"/>
<path style="mix-blend-mode:multiply" opacity="0.5" d="M263.73 218.46C263.73 227.53 204.73 234.88 131.87 234.88C59.01 234.88 0 227.53 0 218.46C0 209.39 59.04 202 131.87 202C204.7 202 263.73 209.39 263.73 218.46Z" fill="url(#paint0_radial_722_471)"/>
<defs>
<radialGradient id="paint0_radial_722_471" cx="0" cy="0" r="1" gradientUnits="userSpaceOnUse" gradientTransform="translate(128.069 225.938) scale(131.57 16.52)">
<stop stop-color="#111C29" stop-opacity="0.5"/>
<stop offset="0.12" stop-color="#424D5A" stop-opacity="0.5"/>
<stop offset="0.28" stop-color="#838E9A" stop-opacity="0.5"/>
<stop offset="0.42" stop-color="#B2BEC9" stop-opacity="0"/>
<stop offset="0.53" stop-color="#CFDBE6" stop-opacity="0"/>
<stop offset="0.59" stop-color="#DAE6F1" stop-opacity="0"/>
<stop offset="0.63" stop-color="#E4ECF5" stop-opacity="0"/>
<stop offset="0.73" stop-color="#F3F7FA" stop-opacity="0"/>
<stop offset="0.84" stop-color="#FCFDFE" stop-opacity="0"/>
<stop offset="1" stop-color="white" stop-opacity="0"/>
</radialGradient>
</defs>
</svg>
