<svg width="264" height="236" viewBox="0 0 264 236" fill="none" xmlns="http://www.w3.org/2000/svg">
<path d="M126.38 209.64C105.649 209.64 85.3835 203.493 68.1462 191.975C50.9088 180.458 37.4738 164.088 29.5399 144.935C21.606 125.782 19.5297 104.707 23.5734 84.3744C27.617 64.0415 37.5992 45.3644 52.2575 30.7046C66.9159 16.0449 85.5921 6.06099 105.925 2.01535C126.257 -2.03028 147.332 0.0440803 166.486 7.97612C185.639 15.9082 202.011 29.3417 213.53 46.5779C225.049 63.8141 231.198 84.079 231.2 104.81C231.171 132.602 220.118 159.248 200.467 178.9C180.816 198.553 154.172 209.608 126.38 209.64ZM126.38 1.05005C105.853 1.05005 85.7878 7.13714 68.7208 18.5415C51.6539 29.9459 38.3521 46.1553 30.4979 65.1198C22.6436 84.0843 20.5896 104.952 24.5956 125.084C28.6016 145.216 38.4876 163.708 53.0035 178.221C67.5194 192.734 86.0131 202.616 106.146 206.618C126.278 210.62 147.146 208.562 166.109 200.705C185.072 192.847 201.279 179.542 212.68 162.473C224.081 145.403 230.164 125.337 230.16 104.81C230.126 77.2983 219.18 50.9235 199.724 31.4716C180.269 12.0197 153.892 1.07916 126.38 1.05005Z" fill="#1D1D1B"/>
<path d="M78.87 21.47L74.7 14.24L73.8 14.77L78 21.99L78.87 21.47ZM30.43 104.81C30.43 104.64 30.43 104.47 30.43 104.29H22.12V105.29H30.44C30.44 105.17 30.43 105 30.43 104.81ZM56.23 27.66L61.8 33.85C62.06 33.61 62.33 33.39 62.59 33.16L57 26.97L56.23 27.66ZM107 10.81L105.27 2.67003L104.27 2.89003L106 11.05C106.27 11 106.6 10.91 107 10.81ZM87.84 16.95L84.45 9.34003L83.45 9.76003L86.84 17.38L87.84 16.95ZM97.23 13.39L94.66 5.48003L93.66 5.80003L96.23 13.73L97.23 13.39ZM31 94.27L22.72 93.4L22.61 94.4L30.89 95.27C30.94 94.96 31 94.62 31 94.27ZM32.62 84.36L24.5 82.63L24.29 83.63L32.41 85.35C32.48 85.03 32.57 84.7 32.64 84.36H32.62ZM48.55 35.43L54.75 41.01C54.98 40.75 55.2 40.48 55.44 40.22L49.24 34.65L48.55 35.43ZM116.87 9.34003L116 1.05003L115 1.16003L115.87 9.46003L116.87 9.34003ZM35.29 74.67L27.38 72.1L27.06 73.1L35 75.66L35.29 74.67ZM49.08 48L42.33 43.1L41.72 43.94L48.47 48.81C48.68 48.57 48.87 48.28 49.08 48ZM43.56 56.39L36.34 52.22L35.82 53.13L43 57.29C43.22 56.99 43.39 56.69 43.56 56.39ZM39 65.31L31.39 61.93L30.97 62.93L38.57 66.31C38.66 65.95 38.81 65.63 39 65.31ZM64.67 20.81L69.58 27.55L70.43 26.95L65.52 20.19L64.67 20.81ZM209.74 57.31L217 53.11L216.48 52.21L209.21 56.41C209.39 56.71 209.56 57.01 209.74 57.31ZM214.26 66.31L221.92 62.89L221.49 61.94L213.83 65.36C214 65.64 214.12 65.96 214.26 66.28V66.31ZM204.31 48.89L211.11 43.95L210.5 43.11L203.7 48.04C203.91 48.29 204.1 48.58 204.31 48.86V48.89ZM217.81 75.7L225.81 73.11L225.49 72.11L217.49 74.7C217.59 75.01 217.71 75.34 217.81 75.67V75.7ZM221.87 95.34L230.2 94.46L230.09 93.46L221.75 94.33L221.87 95.34ZM220.36 85.41L228.55 83.67L228.33 82.67L220.13 84.41C220.2 84.7 220.29 85.04 220.36 85.38V85.41ZM204.28 35.41L203.58 34.63L197.35 40.25C197.58 40.5 197.8 40.77 198.03 41.03L204.28 35.41ZM135.92 9.34003L136.92 9.46003L137.79 1.11003L136.79 1.01003L135.92 9.34003ZM155.56 13.4L156.56 13.74L159.15 5.74003L158.15 5.42003L155.56 13.4ZM145.85 10.81L146.85 11.04L148.6 2.84003L147.6 2.62003L145.85 10.81ZM190.2 33.19L190.99 33.87L196.6 27.64L195.82 26.94L190.2 33.19ZM125.87 8.88003H126.87V0.530029H125.87V8.88003ZM165 16.96L166 17.39L169.42 9.72003L168.42 9.30003L165 16.96ZM182.41 26.96L183.26 27.57L188.2 20.77L187.36 20.16L182.41 26.96ZM173.97 21.53L174.87 22.05L179.07 14.78L178.17 14.26L173.97 21.53ZM83.51 199.87L84.46 200.29L87.84 192.7L86.84 192.27L83.51 199.87ZM190.2 176.46L195.8 182.69L196.58 181.99L191 175.81C190.73 176.01 190.46 176.23 190.2 176.46ZM182.36 182.74L187.28 189.52L188.13 188.91L183.21 182.14L182.36 182.74ZM197.36 169.41L203.58 175L204.28 174.23L198 168.62C197.81 168.88 197.59 169.15 197.35 169.41H197.36ZM173.92 188.17L178.1 195.42L179.01 194.9L174.83 187.65L173.92 188.17ZM203.71 161.63L210.49 166.56L211.1 165.71L204.31 160.81C204.11 161.07 203.91 161.35 203.7 161.63H203.71ZM155.56 196.25L158.14 204.19L159.14 203.86L156.56 195.92L155.56 196.25ZM164.95 192.7L168.35 200.33L169.3 199.9L165.9 192.27L164.95 192.7ZM217.49 134.96L225.49 137.55L225.81 136.55L217.81 133.97C217.71 134.31 217.59 134.63 217.48 134.96H217.49ZM220.14 125.28L228.34 127.02L228.56 126.02L220.38 124.28C220.3 124.6 220.2 124.94 220.13 125.28H220.14ZM221.76 115.36L230.1 116.24L230.21 115.24L221.88 114.37L221.76 115.36ZM30.91 114.36L22.65 115.23L22.76 116.23L31.03 115.36L30.91 114.36ZM222.34 104.36C222.34 104.54 222.34 104.71 222.34 104.88C222.34 105.05 222.34 105.23 222.34 105.4H230.73V104.4L222.34 104.36ZM145.83 198.81L147.56 206.96L148.56 206.74L146.83 198.57C146.51 198.65 146.17 198.74 145.83 198.81ZM213.83 144.32L221.48 147.72L221.9 146.77L214.26 143.37C214.12 143.69 214 144 213.83 144.32ZM209.22 153.24L216.47 157.43L217 156.53L209.74 152.34C209.57 152.64 209.4 152.94 209.22 153.24ZM43 152.35L35.79 156.51L36.31 157.41L43.52 153.25C43.38 152.95 43.21 152.65 43 152.35ZM135.86 200.35L136.73 208.65L137.73 208.54L136.85 200.23L135.86 200.35ZM56.24 181.97L57.02 182.66L62.59 176.48C62.33 176.24 62.06 176.02 61.8 175.79L56.24 181.97ZM48.56 174.21L49.25 174.98L55.43 169.42C55.2 169.16 54.98 168.89 54.74 168.64L48.56 174.21ZM32.41 124.27L24.29 125.99L24.51 126.99L32.64 125.26C32.57 124.94 32.48 124.61 32.41 124.27ZM35 133.99L27.11 136.55L27.43 137.55L35.33 134.98C35.18 134.64 35.06 134.32 35 133.99ZM38.56 143.38L30.93 146.81L31.35 147.81L38.94 144.43L38.56 143.38ZM48.47 160.81L41.73 165.71L42.34 166.55L49.07 161.66L48.47 160.81ZM115 208.47L116 208.58L116.87 200.31L115.87 200.2L115 208.47ZM125.89 200.77V209.13H126.89V200.81H125.89V200.77ZM104.23 206.71L105.23 206.93L107 198.81L106 198.58L104.23 206.71ZM93.68 203.81L94.68 204.13L97.25 196.24L96.25 195.91L93.68 203.81ZM64.68 188.81L65.52 189.42L70.42 182.68L69.56 182.08L64.68 188.81ZM73.8 194.81L74.7 195.33L78.87 188.12L77.96 187.6L73.8 194.81Z" fill="#1D1D1B"/>
<path d="M35.3 54.03L48 61.34C48.51 60.43 49 59.52 49.56 58.63L36.87 51.32L35.3 54.03ZM82.92 26.4L75.61 13.72L72.9 15.29L80.21 27.96C81.1 27.42 82 26.9 82.92 26.4ZM36.69 104.81C36.69 104.29 36.69 103.81 36.69 103.25H22.12V106.38H36.73C36.72 105.86 36.69 105.35 36.69 104.81ZM169.87 26.41C170.78 26.92 171.69 27.41 172.58 27.97L179.92 15.25L177.21 13.69L169.87 26.41ZM124.82 15.17C125.35 15.17 125.82 15.17 126.39 15.17C126.96 15.17 127.39 15.17 127.95 15.17V0.530029H124.82V15.17ZM217.53 54.01L216 51.3L203.28 58.65C203.82 59.54 204.33 60.45 204.84 61.36L217.53 54.01ZM203.25 151.01L215.95 158.34L217.52 155.63L204.81 148.3C204.3 149.2 203.79 150.11 203.25 151V151.01ZM216 103.26C216 103.78 216 104.26 216 104.82C216 105.38 216 105.82 216 106.39H230.68V103.26H216ZM169.82 183.26L177.15 195.95L179.86 194.38L172.53 181.69C171.68 182.22 170.78 182.74 169.86 183.25L169.82 183.26ZM35.31 155.61L36.88 158.31L49.53 151.01C48.99 150.12 48.47 149.21 47.97 148.3L35.31 155.61ZM124.82 194.49V209.13H128V194.49H126.44C125.86 194.52 125.35 194.49 124.82 194.49ZM72.91 194.34L75.62 195.91L82.93 183.25C82.01 182.75 81.1 182.25 80.21 181.69L72.91 194.34Z" fill="#1D1D1B"/>
<path d="M50.82 103.75C50.82 109.523 48.51 112.41 43.89 112.41C43.2441 112.426 42.5988 112.358 41.97 112.21V110.81C42.587 110.99 43.2273 111.078 43.87 111.07C44.5737 111.119 45.2794 111.01 45.9353 110.75C46.5911 110.491 47.1805 110.087 47.66 109.57C48.6088 108.219 49.0803 106.589 49 104.94H48.88C48.5009 105.496 47.9746 105.936 47.36 106.21C46.6866 106.509 45.9567 106.659 45.22 106.65C44.6272 106.699 44.0308 106.618 43.4727 106.412C42.9145 106.206 42.4081 105.881 41.989 105.459C41.5698 105.037 41.2479 104.528 41.046 103.969C40.8441 103.409 40.7669 102.813 40.82 102.22C40.7831 101.555 40.882 100.889 41.1107 100.263C41.3393 99.6375 41.693 99.0648 42.15 98.5801C42.6125 98.1323 43.1614 97.7835 43.7631 97.5549C44.3649 97.3262 45.0069 97.2225 45.65 97.2501C46.613 97.231 47.5599 97.499 48.37 98.0201C49.1733 98.577 49.7928 99.3602 50.15 100.27C50.6054 101.373 50.8333 102.557 50.82 103.75ZM45.69 98.6901C45.2609 98.6633 44.8312 98.7319 44.4318 98.8909C44.0324 99.05 43.6732 99.2956 43.38 99.6101C42.8028 100.342 42.5145 101.26 42.57 102.19C42.5234 103.021 42.7912 103.838 43.32 104.48C43.6187 104.773 43.9768 104.999 44.37 105.142C44.7633 105.285 45.1827 105.343 45.6 105.31C46.2032 105.314 46.8001 105.188 47.35 104.94C47.8499 104.722 48.2843 104.377 48.61 103.94C48.9044 103.551 49.0657 103.078 49.07 102.59C49.0796 101.899 48.9326 101.216 48.64 100.59C48.3791 100.02 47.9677 99.533 47.45 99.1801C46.9251 98.8454 46.3123 98.6748 45.69 98.6901Z" fill="#010101"/>
<path d="M57.13 73.23H55.44V62.73C55.44 61.86 55.44 61.03 55.52 60.25C55.38 60.39 55.21 60.54 55.03 60.69C54.85 60.84 54.03 61.5 52.55 62.69L51.63 61.54L55.63 58.54H57.09L57.13 73.23Z" fill="#010101"/>
<path d="M73 65.81C73.1295 67.7887 72.6998 69.764 71.76 71.51C71.3539 72.1296 70.7939 72.6332 70.1348 72.9715C69.4758 73.3098 68.7402 73.4713 68 73.44C67.261 73.4747 66.5259 73.3136 65.8691 72.9729C65.2124 72.6323 64.6573 72.1242 64.26 71.5C63.2945 69.7667 62.8565 67.789 63 65.81C62.8598 63.821 63.29 61.8332 64.24 60.08C64.6834 59.4952 65.2576 59.0223 65.9167 58.6992C66.5757 58.3762 67.3012 58.212 68.0351 58.2197C68.769 58.2275 69.4909 58.4071 70.143 58.744C70.795 59.0809 71.3591 59.5659 71.79 60.16C72.7268 61.8884 73.1468 63.8496 73 65.81ZM64.7 65.81C64.5995 67.4091 64.8663 69.01 65.48 70.49C65.7255 70.9385 66.0871 71.3127 66.527 71.5734C66.9668 71.8341 67.4687 71.9716 67.98 71.9716C68.4913 71.9716 68.9932 71.8341 69.433 71.5734C69.8729 71.3127 70.2345 70.9385 70.48 70.49C71.093 69.0098 71.3598 67.4091 71.26 65.81C71.3588 64.2175 71.092 62.6235 70.48 61.15C70.2323 60.7042 69.8699 60.3328 69.4303 60.0741C68.9907 59.8155 68.49 59.6791 67.98 59.6791C67.47 59.6791 66.9693 59.8155 66.5297 60.0741C66.0901 60.3328 65.7277 60.7042 65.48 61.15C64.8676 62.6235 64.6008 64.2175 64.7 65.81Z" fill="#010101"/>
<path d="M56.64 136.24C57.8141 136.176 58.976 136.507 59.94 137.18C60.3436 137.485 60.666 137.884 60.8788 138.343C61.0916 138.801 61.1881 139.305 61.16 139.81C61.1622 140.537 60.9151 141.243 60.46 141.81C59.8516 142.517 59.0885 143.075 58.23 143.44C59.2273 143.842 60.1273 144.452 60.87 145.23C61.3823 145.844 61.6589 146.621 61.65 147.42C61.6704 147.977 61.5619 148.531 61.333 149.04C61.104 149.548 60.7608 149.996 60.33 150.35C59.2863 151.131 58.0015 151.52 56.7 151.45C55.3704 151.544 54.0475 151.192 52.94 150.45C52.505 150.1 52.1594 149.653 51.9316 149.143C51.7039 148.634 51.6005 148.077 51.63 147.52C51.63 145.833 52.6933 144.52 54.82 143.58C54.012 143.179 53.3072 142.597 52.76 141.88C52.3517 141.293 52.1319 140.595 52.13 139.88C52.1137 139.386 52.217 138.895 52.4312 138.449C52.6453 138.004 52.964 137.616 53.36 137.32C54.2961 136.593 55.4548 136.211 56.64 136.24ZM53.34 147.48C53.3238 147.84 53.3944 148.199 53.5458 148.526C53.6972 148.853 53.925 149.139 54.21 149.36C54.929 149.851 55.7914 150.086 56.66 150.03C57.5219 150.085 58.3756 149.834 59.07 149.32C59.3388 149.097 59.5561 148.819 59.7068 148.504C59.8575 148.189 59.938 147.846 59.9428 147.497C59.9475 147.148 59.8764 146.802 59.7344 146.483C59.5923 146.164 59.3827 145.88 59.12 145.65C58.2788 144.982 57.3185 144.48 56.29 144.17C55.4326 144.476 54.6514 144.964 54 145.6C53.5492 146.12 53.3133 146.792 53.34 147.48ZM56.61 137.6C55.8944 137.566 55.1887 137.778 54.61 138.2C54.3699 138.395 54.1781 138.642 54.0497 138.923C53.9213 139.204 53.8598 139.511 53.87 139.82C53.8628 140.113 53.9139 140.404 54.0203 140.677C54.1268 140.95 54.2864 141.199 54.49 141.41C55.1446 142.008 55.9182 142.461 56.76 142.74C57.5517 142.47 58.2728 142.026 58.87 141.44C59.2748 140.998 59.4965 140.419 59.49 139.82C59.499 139.51 59.4359 139.203 59.3058 138.922C59.1756 138.641 58.9819 138.394 58.74 138.2C58.1199 137.762 57.3678 137.55 56.61 137.6Z" fill="#010101"/>
<path d="M86.54 44.7H84.85V34.19C84.85 33.32 84.85 32.49 84.93 31.71C84.79 31.85 84.62 32 84.44 32.15C84.26 32.3 83.44 32.96 81.96 34.15L81 32.97L85 29.97H86.46L86.54 44.7Z" fill="#010101"/>
<path d="M98.75 44.7001H97.06V34.1901C97.06 33.3201 97.06 32.4901 97.14 31.7101C97 31.8501 96.83 32.0001 96.66 32.1501L94.17 34.1501L93.26 33.0001L97.26 30.0001H98.72L98.75 44.7001Z" fill="#010101"/>
<path d="M83 179.71L89.32 166.51H81V164.97H91.19V166.31L85 179.71H83Z" fill="#010101"/>
<path d="M121.58 183.81C121.58 180.91 122.17 178.74 123.33 177.31C123.964 176.573 124.762 175.995 125.66 175.622C126.558 175.248 127.53 175.09 128.5 175.16C129.122 175.141 129.745 175.205 130.35 175.35V176.81C129.757 176.629 129.14 176.542 128.52 176.55C127.825 176.505 127.128 176.615 126.479 176.871C125.831 177.126 125.247 177.522 124.77 178.03C123.791 179.378 123.292 181.015 123.35 182.68H123.48C123.878 182.097 124.424 181.63 125.062 181.326C125.699 181.022 126.406 180.892 127.11 180.95C127.703 180.917 128.296 181.006 128.853 181.211C129.41 181.415 129.919 181.732 130.35 182.14C130.755 182.577 131.069 183.09 131.271 183.65C131.474 184.21 131.562 184.805 131.53 185.4C131.569 186.058 131.474 186.718 131.251 187.338C131.027 187.959 130.68 188.528 130.23 189.01C129.768 189.46 129.217 189.81 128.613 190.037C128.009 190.264 127.364 190.364 126.72 190.33C126.004 190.36 125.29 190.22 124.638 189.921C123.987 189.622 123.415 189.173 122.97 188.61C121.964 187.22 121.473 185.523 121.58 183.81ZM126.7 188.89C127.125 188.912 127.55 188.843 127.947 188.688C128.343 188.533 128.702 188.295 129 187.99C129.594 187.255 129.887 186.323 129.82 185.38C129.863 184.545 129.592 183.725 129.06 183.08C128.764 182.786 128.408 182.559 128.016 182.414C127.625 182.269 127.206 182.21 126.79 182.24C126.192 182.236 125.601 182.366 125.06 182.62C124.566 182.838 124.138 183.183 123.82 183.62C123.523 184.012 123.358 184.488 123.35 184.98C123.35 185.646 123.493 186.304 123.77 186.91C124.03 187.483 124.442 187.974 124.96 188.33C125.461 188.711 126.071 188.921 126.7 188.93V188.89Z" fill="#010101"/>
<path d="M166.47 170.7C167.831 170.621 169.176 171.032 170.26 171.86C170.718 172.245 171.081 172.73 171.32 173.278C171.56 173.827 171.669 174.423 171.64 175.02C171.674 175.693 171.556 176.366 171.295 176.987C171.033 177.609 170.635 178.163 170.13 178.61C168.95 179.532 167.475 179.994 165.98 179.91C164.62 179.987 163.263 179.711 162.04 179.11V177.5C162.608 177.827 163.221 178.066 163.86 178.21C164.561 178.376 165.279 178.46 166 178.46C167.02 178.527 168.03 178.229 168.85 177.62C169.194 177.323 169.464 176.949 169.638 176.529C169.811 176.109 169.884 175.654 169.85 175.2C169.85 173.153 168.55 172.127 165.95 172.12C165.06 172.144 164.173 172.244 163.3 172.42L162.4 171.86L162.98 164.96H170.55V166.51H164.46L164.07 170.93C164.861 170.779 165.665 170.702 166.47 170.7Z" fill="#010101"/>
<path d="M201.93 147.81H199.67V151.2H198V147.81H190.6V146.35L197.83 136.35H199.67V146.26H201.93V147.81ZM198 146.26V141.36C198 140.36 198 139.31 198.1 138.1H198C197.717 138.65 197.403 139.185 197.06 139.7L192.29 146.26H198Z" fill="#010101"/>
<path d="M211.45 100.92C211.482 101.768 211.184 102.596 210.62 103.23C209.993 103.865 209.181 104.285 208.3 104.43V104.51C209.313 104.562 210.277 104.961 211.03 105.64C211.328 105.956 211.559 106.329 211.71 106.736C211.861 107.143 211.929 107.576 211.91 108.01C211.942 108.634 211.82 109.256 211.557 109.822C211.294 110.388 210.897 110.882 210.4 111.26C209.128 112.086 207.624 112.482 206.11 112.39C205.366 112.399 204.624 112.342 203.89 112.22C203.199 112.101 202.527 111.892 201.89 111.6V110.01C202.567 110.327 203.279 110.565 204.01 110.72C204.705 110.883 205.416 110.967 206.13 110.97C208.763 110.97 210.097 109.97 210.13 107.97C210.13 106.18 208.68 105.28 205.76 105.28H204.27V103.81H205.79C206.79 103.865 207.782 103.599 208.62 103.05C208.947 102.807 209.209 102.488 209.384 102.12C209.558 101.752 209.639 101.347 209.62 100.94C209.64 100.615 209.58 100.291 209.445 99.9948C209.311 99.6985 209.107 99.4395 208.85 99.2401C208.246 98.8069 207.512 98.5918 206.77 98.6301C206.134 98.6267 205.501 98.7142 204.89 98.8901C204.181 99.132 203.509 99.4684 202.89 99.8901L202 98.8101C202.651 98.3145 203.382 97.9325 204.16 97.6801C204.993 97.4096 205.864 97.2746 206.74 97.2801C207.971 97.2075 209.189 97.5606 210.19 98.2801C210.589 98.5931 210.911 98.9943 211.13 99.4523C211.348 99.9103 211.458 100.413 211.45 100.92Z" fill="#010101"/>
<path d="M201.21 73.2201H191.21V71.8101L195.21 67.9101C196.068 67.107 196.876 66.2521 197.63 65.3501C197.989 64.8913 198.284 64.3869 198.51 63.8501C198.705 63.3532 198.803 62.8238 198.8 62.2901C198.817 61.9437 198.759 61.5977 198.632 61.2753C198.504 60.9528 198.309 60.6613 198.06 60.4201C197.491 59.9352 196.757 59.6881 196.01 59.7301C195.394 59.7263 194.782 59.8278 194.2 60.0301C193.519 60.301 192.882 60.6717 192.31 61.1301L191.39 59.9901C192.677 58.8924 194.309 58.2834 196 58.2701C197.215 58.2016 198.413 58.5785 199.37 59.3301C199.775 59.6849 200.095 60.1261 200.306 60.6211C200.517 61.1162 200.614 61.6524 200.59 62.1901C200.577 63.173 200.297 64.1338 199.78 64.9701C198.917 66.2501 197.892 67.4131 196.73 68.4301L193.39 71.5901V71.6701H201.24L201.21 73.2201Z" fill="#010101"/>
<path d="M168.1 44.7001H166.4V34.1901C166.4 33.3201 166.4 32.4901 166.49 31.7101C166.34 31.8501 166.18 32.0001 166 32.1501C165.82 32.3001 165 32.9601 163.51 34.1501L162.6 33.0001L166.6 30.0001H168.07L168.1 44.7001Z" fill="#010101"/>
<path d="M121.71 34.2601H120V23.7401C120 22.8701 120 22.0501 120.09 21.2601C119.95 21.4101 119.78 21.5501 119.6 21.7101C119.42 21.8701 118.6 22.5201 117.11 23.7101L116.2 22.5601L120.2 19.5601H121.66L121.71 34.2601Z" fill="#010101"/>
<path d="M137.52 34.26H127.52V32.81L131.52 28.9C132.375 28.0942 133.184 27.2395 133.94 26.34C134.297 25.8856 134.59 25.3842 134.81 24.85C135.004 24.3495 135.102 23.8169 135.1 23.28C135.117 22.9345 135.061 22.5892 134.935 22.2668C134.809 21.9445 134.617 21.6525 134.37 21.41C133.798 20.9237 133.06 20.6765 132.31 20.72C131.696 20.7155 131.087 20.8205 130.51 21.03C129.827 21.2924 129.189 21.6602 128.62 22.12L127.7 20.98C128.985 19.8961 130.609 19.298 132.29 19.29C133.505 19.2215 134.703 19.5984 135.66 20.35C136.063 20.7062 136.382 21.1477 136.593 21.6424C136.804 22.1371 136.902 22.6726 136.88 23.21C136.863 24.1938 136.58 25.1546 136.06 25.99C135.216 27.2702 134.208 28.4336 133.06 29.45L129.72 32.61V32.69H137.56L137.52 34.26Z" fill="#010101"/>
<path d="M201.57 52.1801L134.24 94.2301L131.34 98.1401C129.814 96.9859 127.932 96.4012 126.02 96.4871C124.109 96.5729 122.287 97.3238 120.87 98.6101L117.63 94.9501L72.19 73.5301L113.46 102.18L118.21 103.18C117.933 104.431 117.947 105.73 118.251 106.974C118.556 108.219 119.142 109.378 119.966 110.36C120.789 111.342 121.827 112.121 123 112.638C124.173 113.155 125.449 113.396 126.729 113.341C128.01 113.286 129.26 112.938 130.385 112.323C131.509 111.707 132.477 110.842 133.213 109.793C133.95 108.745 134.436 107.54 134.633 106.274C134.83 105.008 134.733 103.713 134.35 102.49L139.03 101.1L201.57 52.1801ZM126.39 109.75C125.415 109.752 124.46 109.465 123.648 108.924C122.836 108.384 122.203 107.614 121.828 106.714C121.453 105.813 121.354 104.821 121.544 103.864C121.733 102.907 122.201 102.028 122.89 101.338C123.579 100.647 124.458 100.177 125.415 99.9855C126.371 99.7945 127.363 99.8915 128.264 100.264C129.166 100.637 129.936 101.269 130.478 102.08C131.021 102.891 131.31 103.845 131.31 104.82C131.31 106.126 130.792 107.378 129.87 108.303C128.947 109.227 127.696 109.747 126.39 109.75Z" fill="#171717"/>
<path d="M132.06 83.67C131.927 83.6279 131.787 83.6139 131.649 83.6289C131.511 83.6439 131.377 83.6877 131.257 83.7573C131.136 83.827 131.031 83.921 130.949 84.0334C130.867 84.1458 130.81 84.2741 130.78 84.41L125.84 102.81C125.398 102.925 125.007 103.184 124.728 103.547C124.449 103.909 124.299 104.353 124.3 104.81C124.302 105.364 124.521 105.895 124.91 106.29L99.46 201.29C99.4178 201.423 99.4038 201.563 99.4189 201.701C99.4339 201.839 99.4776 201.973 99.5473 202.093C99.6169 202.214 99.711 202.319 99.8234 202.401C99.9357 202.483 100.064 202.54 100.2 202.57H100.47C100.697 202.566 100.917 202.489 101.097 202.35C101.277 202.211 101.408 202.019 101.47 201.8L126.93 106.8C127.28 106.706 127.599 106.522 127.854 106.266C128.11 106.01 128.294 105.691 128.387 105.341C128.481 104.991 128.48 104.623 128.386 104.273C128.291 103.924 128.107 103.605 127.85 103.35L132.78 84.94C132.821 84.8094 132.834 84.6718 132.82 84.5357C132.805 84.3996 132.763 84.268 132.695 84.1489C132.628 84.0299 132.537 83.926 132.427 83.8436C132.318 83.7612 132.193 83.7021 132.06 83.67Z" fill="#E63B35"/>
<path style="mix-blend-mode:multiply" opacity="0.5" d="M263.73 219.46C263.73 228.53 204.73 235.88 131.87 235.88C59.01 235.88 0 228.53 0 219.46C0 210.39 59.04 203 131.87 203C204.7 203 263.73 210.39 263.73 219.46Z" fill="url(#paint0_radial_722_470)"/>
<defs>
<radialGradient id="paint0_radial_722_470" cx="0" cy="0" r="1" gradientUnits="userSpaceOnUse" gradientTransform="translate(128.069 226.938) scale(131.57 16.52)">
<stop stop-color="#111C29" stop-opacity="0.5"/>
<stop offset="0.12" stop-color="#424D5A" stop-opacity="0.5"/>
<stop offset="0.28" stop-color="#838E9A" stop-opacity="0.5"/>
<stop offset="0.42" stop-color="#B2BEC9" stop-opacity="0"/>
<stop offset="0.53" stop-color="#CFDBE6" stop-opacity="0"/>
<stop offset="0.59" stop-color="#DAE6F1" stop-opacity="0"/>
<stop offset="0.63" stop-color="#E4ECF5" stop-opacity="0"/>
<stop offset="0.73" stop-color="#F3F7FA" stop-opacity="0"/>
<stop offset="0.84" stop-color="#FCFDFE" stop-opacity="0"/>
<stop offset="1" stop-color="white" stop-opacity="0"/>
</radialGradient>
</defs>
</svg>
